<svg width="56" height="67" viewBox="0 0 56 67" fill="none" xmlns="http://www.w3.org/2000/svg">
<path d="M41.1237 20.2462C41.1237 23.7909 39.1886 28.3274 36.4078 32.0175C35.0286 33.8477 33.477 35.4206 31.9198 36.5271C30.3497 37.6428 28.8561 38.227 27.5718 38.227C26.2874 38.227 24.7939 37.6427 23.2238 36.5271C21.6666 35.4206 20.115 33.8477 18.7358 32.0175C15.955 28.3274 14.0199 23.7909 14.0199 20.2462C14.0199 19.5083 14.0038 18.7555 13.9874 17.9869C13.9592 16.665 13.9299 15.296 13.9797 13.8746C14.0572 11.6623 14.3274 9.49958 15.0601 7.6002C15.7846 5.72179 16.96 4.10217 18.8775 2.93703C20.8106 1.76243 23.5803 1 27.5718 1C31.5633 1 34.333 1.76243 36.2661 2.93703C38.1836 4.10217 39.359 5.72179 40.0835 7.6002C40.8162 9.49958 41.0864 11.6623 41.1639 13.8746C41.2137 15.296 41.1844 16.665 41.1562 17.9869C41.1398 18.7556 41.1237 19.5083 41.1237 20.2462Z" stroke="#0A2896" stroke-width="2"/>
<path d="M30.1016 54.4111L32.6323 65.1669" stroke="#E73A41" stroke-width="2"/>
<path d="M25.043 54.4111L22.5122 65.1669" stroke="#E73A41" stroke-width="2"/>
<path d="M21.2462 34.165V41.7574M33.9 34.165V41.7574M33.9 41.7574H46.1462C50.5645 41.7574 54.1462 45.3391 54.1462 49.7574V59.4728C33.4607 68.0601 21.9441 68.2896 1 59.4728V49.7574C1 45.3391 4.58173 41.7574 9 41.7574H21.2462M33.9 41.7574L28.8385 46.8189M21.2462 41.7574L26.3077 46.8189" stroke="#0A2896" stroke-width="2"/>
<rect x="23.5117" y="46.5537" width="8.12309" height="8.12309" rx="1" stroke="#E73A41" stroke-width="2"/>
</svg>
