<svg width="67" height="76" viewBox="0 0 67 76" fill="none" xmlns="http://www.w3.org/2000/svg">
<path d="M25.4989 20.4209C20.9666 21.988 17.0028 24.7734 13.9989 28.3854M42.4989 20.4209C46.6534 21.8574 50.3303 24.3175 53.228 27.4997M59.8803 47.4997C58.8993 57.7822 51.9296 66.3177 42.4989 69.5785M25.4989 69.5785C16.5308 66.4776 9.78813 58.6068 8.30469 48.9997" stroke="#E73A41" stroke-dasharray="10 5"/>
<circle cx="33.7656" cy="6" r="5" stroke="#0A2896" stroke-width="2"/>
<rect x="26" y="16.1182" width="16" height="8" rx="4" stroke="#0A2896" stroke-width="2"/>
<circle cx="57.7656" cy="30" r="5" stroke="#0A2896" stroke-width="2"/>
<rect x="50" y="40.1182" width="16" height="8" rx="4" stroke="#0A2896" stroke-width="2"/>
<circle cx="33.7656" cy="56" r="5" stroke="#0A2896" stroke-width="2"/>
<rect x="26" y="66.1182" width="16" height="8" rx="4" stroke="#0A2896" stroke-width="2"/>
<circle cx="8.76562" cy="31" r="5" stroke="#0A2896" stroke-width="2"/>
<rect x="1" y="41.1182" width="16" height="8" rx="4" stroke="#0A2896" stroke-width="2"/>
</svg>
