<svg width="94" height="94" viewBox="0 0 94 94" fill="none" xmlns="http://www.w3.org/2000/svg">
<path d="M11.7733 51.9091C13.1369 51.9091 14.3096 52.1364 15.2914 52.5909C16.2914 53.0455 17.1187 53.5455 17.7733 54.0909C18.5369 54.7273 19.1733 55.4545 19.6824 56.2727L16.8187 57.9091C16.4551 57.3455 16.0278 56.8455 15.5369 56.4091C15.0642 56.0091 14.5187 55.6636 13.9005 55.3727C13.3005 55.0636 12.5914 54.9091 11.7733 54.9091C10.9551 54.9091 10.1642 55.0909 9.40053 55.4545C8.65508 55.8 7.99144 56.2818 7.40962 56.9C6.82781 57.5 6.36417 58.2182 6.01871 59.0545C5.67326 59.8727 5.50053 60.7636 5.50053 61.7273C5.50053 62.6727 5.67326 63.5636 6.01871 64.4C6.36417 65.2364 6.82781 65.9636 7.40962 66.5818C7.99144 67.1818 8.65508 67.6636 9.40053 68.0273C10.1642 68.3727 10.9551 68.5455 11.7733 68.5455C12.6642 68.5455 13.4369 68.3727 14.0914 68.0273C14.7642 67.6636 15.3187 67.2636 15.7551 66.8273C16.2824 66.3364 16.7278 65.7727 17.0914 65.1364L19.9551 66.7727C19.446 67.6636 18.8005 68.4545 18.0187 69.1455C17.5824 69.5818 17.1642 69.9273 16.7642 70.1818C16.3824 70.4182 15.9369 70.6364 15.4278 70.8364C14.9369 71.0364 14.3824 71.2 13.7642 71.3273C13.146 71.4727 12.4824 71.5455 11.7733 71.5455C10.446 71.5455 9.19144 71.2909 8.00962 70.7818C6.84599 70.2727 5.81871 69.5727 4.92781 68.6818C4.05508 67.7909 3.36417 66.7545 2.85508 65.5727C2.34599 64.3727 2.09144 63.0909 2.09144 61.7273C2.09144 60.3636 2.34599 59.0909 2.85508 57.9091C3.36417 56.7091 4.05508 55.6636 4.92781 54.7727C5.81871 53.8818 6.84599 53.1818 8.00962 52.6727C9.19144 52.1636 10.446 51.9091 11.7733 51.9091Z" fill="#0A2896"/>
<path d="M28.8017 33V29.9188H33.542V5.26948H33.305L27.8537 8.58766L26.4316 6.21753L36.3861 0.292204H36.6231V29.9188H41.3634V33H28.8017ZM59.8393 20.4383H59.6023C59.2231 20.7543 58.8122 21.0229 58.3698 21.2442C57.959 21.497 57.5008 21.7024 56.9951 21.8604C56.4895 22.0184 55.9365 22.0974 55.3361 22.0974C53.9772 22.0974 52.6815 21.8288 51.449 21.2916C50.2166 20.7227 49.1263 19.9485 48.1783 18.9688C47.2618 17.9892 46.5192 16.8357 45.9503 15.5084C45.4131 14.1812 45.1445 12.7433 45.1445 11.1948C45.1445 9.64632 45.4131 8.20844 45.9503 6.88117C46.5192 5.55389 47.2776 4.40043 48.2257 3.42078C49.2053 2.44112 50.343 1.68268 51.6387 1.14545C52.9343 0.576619 54.3248 0.292204 55.8101 0.292204C57.2954 0.292204 58.6858 0.576619 59.9815 1.14545C61.2772 1.68268 62.399 2.44112 63.3471 3.42078C64.3267 4.40043 65.0852 5.55389 65.6224 6.88117C66.1912 8.20844 66.4757 9.64632 66.4757 11.1948C66.4757 12.5221 66.3019 13.7387 65.9542 14.8448C65.6066 15.9509 65.2274 16.9305 64.8166 17.7838C64.3425 18.7634 63.7895 19.6483 63.1575 20.4383L54.388 33H50.8328L59.8393 20.4383ZM48.4627 11.1948C48.4627 12.3325 48.6523 13.3753 49.0315 14.3234C49.4423 15.2714 49.9796 16.0931 50.6432 16.7883C51.3068 17.4835 52.0811 18.0366 52.9659 18.4474C53.8508 18.8266 54.7988 19.0162 55.8101 19.0162C56.8213 19.0162 57.7694 18.8266 58.6542 18.4474C59.5391 18.0366 60.3133 17.4835 60.977 16.7883C61.6406 16.0931 62.162 15.2714 62.5412 14.3234C62.9521 13.3753 63.1575 12.3325 63.1575 11.1948C63.1575 10.0571 62.9521 9.01428 62.5412 8.06623C62.162 7.11818 61.6406 6.29653 60.977 5.6013C60.3133 4.90606 59.5391 4.36883 58.6542 3.98961C57.7694 3.57879 56.8213 3.37338 55.8101 3.37338C54.7988 3.37338 53.8508 3.57879 52.9659 3.98961C52.0811 4.36883 51.3068 4.90606 50.6432 5.6013C49.9796 6.29653 49.4423 7.11818 49.0315 8.06623C48.6523 9.01428 48.4627 10.0571 48.4627 11.1948Z" fill="#0A2896"/>
<path d="M41.6004 58.4383H41.3634C40.9842 58.7543 40.5734 59.0229 40.1309 59.2442C39.7201 59.497 39.2619 59.7024 38.7563 59.8604C38.2506 60.0184 37.6976 60.0974 37.0972 60.0974C35.7383 60.0974 34.4426 59.8288 33.2101 59.2916C31.9777 58.7227 30.8874 57.9485 29.9394 56.9688C29.0229 55.9892 28.2803 54.8357 27.7114 53.5084C27.1742 52.1812 26.9056 50.7433 26.9056 49.1948C26.9056 47.6463 27.1742 46.2084 27.7114 44.8812C28.2803 43.5539 29.0387 42.4004 29.9868 41.4208C30.9664 40.4411 32.1041 39.6827 33.3998 39.1455C34.6954 38.5766 36.0859 38.2922 37.5712 38.2922C39.0565 38.2922 40.4469 38.5766 41.7426 39.1455C43.0383 39.6827 44.1601 40.4411 45.1082 41.4208C46.0879 42.4004 46.8463 43.5539 47.3835 44.8812C47.9524 46.2084 48.2368 47.6463 48.2368 49.1948C48.2368 50.5221 48.063 51.7387 47.7153 52.8448C47.3677 53.9509 46.9885 54.9305 46.5777 55.7838C46.1037 56.7634 45.5506 57.6483 44.9186 58.4383L36.1491 71H32.5939L41.6004 58.4383ZM30.2238 49.1948C30.2238 50.3325 30.4134 51.3753 30.7926 52.3234C31.2034 53.2714 31.7407 54.0931 32.4043 54.7883C33.0679 55.4835 33.8422 56.0366 34.727 56.4474C35.6119 56.8266 36.5599 57.0162 37.5712 57.0162C38.5824 57.0162 39.5305 56.8266 40.4153 56.4474C41.3002 56.0366 42.0744 55.4835 42.7381 54.7883C43.4017 54.0931 43.9231 53.2714 44.3024 52.3234C44.7132 51.3753 44.9186 50.3325 44.9186 49.1948C44.9186 48.0571 44.7132 47.0143 44.3024 46.0662C43.9231 45.1182 43.4017 44.2965 42.7381 43.6013C42.0744 42.9061 41.3002 42.3688 40.4153 41.9896C39.5305 41.5788 38.5824 41.3734 37.5712 41.3734C36.5599 41.3734 35.6119 41.5788 34.727 41.9896C33.8422 42.3688 33.0679 42.9061 32.4043 43.6013C31.7407 44.2965 31.2034 45.1182 30.7926 46.0662C30.4134 47.0143 30.2238 48.0571 30.2238 49.1948ZM54.401 71V67.9188H59.1412V43.2695H58.9042L53.4529 46.5877L52.0308 44.2175L61.9854 38.2922H62.2224V67.9188H66.9626V71H54.401Z" fill="#E73A41"/>
</svg>
