<svg width="90" height="81" viewBox="0 0 90 81" fill="none" xmlns="http://www.w3.org/2000/svg">
    <path d="M16.5909 9H1V79H57V60.3636V37.5" stroke="#0A2896" stroke-width="2"/>
    <path d="M22 60.998H36V79.0372H22V60.998Z" stroke="#0A2896" stroke-width="2"/>
    <path d="M8.03906 18.96V15.0369" stroke="#0A2896" stroke-width="2"/>
    <path d="M15.0391 18.96V15.0369" stroke="#0A2896" stroke-width="2"/>
    <path d="M8.03906 27.96V24.0369" stroke="#0A2896" stroke-width="2"/>
    <path d="M15.0391 27.96V24.0369" stroke="#0A2896" stroke-width="2"/>
    <path d="M22.0391 27.96V24.0369" stroke="#0A2896" stroke-width="2"/>
    <path d="M8.03906 36.96V33.0369" stroke="#0A2896" stroke-width="2"/>
    <path d="M15.0391 36.96V33.0369" stroke="#0A2896" stroke-width="2"/>
    <path d="M22.0391 36.96V33.0369" stroke="#0A2896" stroke-width="2"/>
    <path d="M8.03906 45.96V42.0369" stroke="#0A2896" stroke-width="2"/>
    <path d="M15.0391 45.96V42.0369" stroke="#0A2896" stroke-width="2"/>
    <path d="M22.0391 45.96V42.0369" stroke="#0A2896" stroke-width="2"/>
    <path d="M29.0391 45.96V42.0369" stroke="#0A2896" stroke-width="2"/>
    <path d="M36.0391 45.96V42.0369" stroke="#0A2896" stroke-width="2"/>
    <path d="M43.0391 45.96V42.0369" stroke="#0A2896" stroke-width="2"/>
    <path d="M50.0391 45.96V42.0369" stroke="#0A2896" stroke-width="2"/>
    <path d="M8.03906 54.96V51.0369" stroke="#0A2896" stroke-width="2"/>
    <path d="M15.0391 54.96V51.0369" stroke="#0A2896" stroke-width="2"/>
    <path d="M22.0391 54.96V51.0369" stroke="#0A2896" stroke-width="2"/>
    <path d="M29.0391 54.96V51.0369" stroke="#0A2896" stroke-width="2"/>
    <path d="M36.0391 54.96V51.0369" stroke="#0A2896" stroke-width="2"/>
    <path d="M43.0391 54.96V51.0369" stroke="#0A2896" stroke-width="2"/>
    <path d="M50.0391 54.96V51.0369" stroke="#0A2896" stroke-width="2"/>
    <path d="M8.03906 63.96V60.0369" stroke="#0A2896" stroke-width="2"/>
    <path d="M15.0391 63.96V60.0369" stroke="#0A2896" stroke-width="2"/>
    <path d="M43.0391 63.96V60.0369" stroke="#0A2896" stroke-width="2"/>
    <path d="M50.0391 63.96V60.0369" stroke="#0A2896" stroke-width="2"/>
    <path d="M8.03906 72.96V69.0369" stroke="#0A2896" stroke-width="2"/>
    <path d="M15.0391 72.96V69.0369" stroke="#0A2896" stroke-width="2"/>
    <path d="M43.0391 72.96V69.0369" stroke="#0A2896" stroke-width="2"/>
    <path d="M50.0391 72.96V69.0369" stroke="#0A2896" stroke-width="2"/>
    <path d="M22.0513 18V16.375H24.5513V3.375H24.4263L21.5513 5.125L20.8013 3.875L26.0513 0.749999H26.1763V16.375H28.6763V18H22.0513ZM47.9126 9.625C47.9126 11.0917 47.7376 12.3833 47.3876 13.5C47.0543 14.6 46.5959 15.525 46.0126 16.275C45.4459 17.0083 44.7959 17.5667 44.0626 17.95C43.3293 18.3167 42.5709 18.5 41.7876 18.5C41.0043 18.5 40.2459 18.3167 39.5126 17.95C38.7793 17.5667 38.1209 17.0083 37.5376 16.275C36.9709 15.525 36.5126 14.6 36.1626 13.5C35.8293 12.3833 35.6626 11.0917 35.6626 9.625C35.6626 8.15833 35.8293 6.875 36.1626 5.775C36.5126 4.65833 36.9709 3.73333 37.5376 3C38.1209 2.25 38.7793 1.69167 39.5126 1.325C40.2459 0.941665 41.0043 0.749999 41.7876 0.749999C42.5709 0.749999 43.3293 0.941665 44.0626 1.325C44.7959 1.69167 45.4459 2.25 46.0126 3C46.5959 3.73333 47.0543 4.65833 47.3876 5.775C47.7376 6.875 47.9126 8.15833 47.9126 9.625ZM46.1626 9.625C46.1626 8.34167 46.0376 7.24167 45.7876 6.325C45.5543 5.40833 45.2293 4.65833 44.8126 4.075C44.4126 3.49167 43.9459 3.06667 43.4126 2.8C42.8959 2.51667 42.3543 2.375 41.7876 2.375C41.2209 2.375 40.6709 2.51667 40.1376 2.8C39.6209 3.06667 39.1543 3.49167 38.7376 4.075C38.3376 4.65833 38.0126 5.40833 37.7626 6.325C37.5293 7.24167 37.4126 8.34167 37.4126 9.625C37.4126 10.9083 37.5293 12.0083 37.7626 12.925C38.0126 13.8417 38.3376 14.5917 38.7376 15.175C39.1543 15.7583 39.6209 16.1917 40.1376 16.475C40.6709 16.7417 41.2209 16.875 41.7876 16.875C42.3543 16.875 42.8959 16.7417 43.4126 16.475C43.9459 16.1917 44.4126 15.7583 44.8126 15.175C45.2293 14.5917 45.5543 13.8417 45.7876 12.925C46.0376 12.0083 46.1626 10.9083 46.1626 9.625ZM63.1714 9.625C63.1714 11.0917 62.9964 12.3833 62.6464 13.5C62.3131 14.6 61.8547 15.525 61.2714 16.275C60.7047 17.0083 60.0547 17.5667 59.3214 17.95C58.5881 18.3167 57.8297 18.5 57.0464 18.5C56.2631 18.5 55.5047 18.3167 54.7714 17.95C54.0381 17.5667 53.3797 17.0083 52.7964 16.275C52.2297 15.525 51.7714 14.6 51.4214 13.5C51.0881 12.3833 50.9214 11.0917 50.9214 9.625C50.9214 8.15833 51.0881 6.875 51.4214 5.775C51.7714 4.65833 52.2297 3.73333 52.7964 3C53.3797 2.25 54.0381 1.69167 54.7714 1.325C55.5047 0.941665 56.2631 0.749999 57.0464 0.749999C57.8297 0.749999 58.5881 0.941665 59.3214 1.325C60.0547 1.69167 60.7047 2.25 61.2714 3C61.8547 3.73333 62.3131 4.65833 62.6464 5.775C62.9964 6.875 63.1714 8.15833 63.1714 9.625ZM61.4214 9.625C61.4214 8.34167 61.2964 7.24167 61.0464 6.325C60.8131 5.40833 60.4881 4.65833 60.0714 4.075C59.6714 3.49167 59.2047 3.06667 58.6714 2.8C58.1547 2.51667 57.6131 2.375 57.0464 2.375C56.4797 2.375 55.9297 2.51667 55.3964 2.8C54.8797 3.06667 54.4131 3.49167 53.9964 4.075C53.5964 4.65833 53.2714 5.40833 53.0214 6.325C52.7881 7.24167 52.6714 8.34167 52.6714 9.625C52.6714 10.9083 52.7881 12.0083 53.0214 12.925C53.2714 13.8417 53.5964 14.5917 53.9964 15.175C54.4131 15.7583 54.8797 16.1917 55.3964 16.475C55.9297 16.7417 56.4797 16.875 57.0464 16.875C57.6131 16.875 58.1547 16.7417 58.6714 16.475C59.2047 16.1917 59.6714 15.7583 60.0714 15.175C60.4881 14.5917 60.8131 13.8417 61.0464 12.925C61.2964 12.0083 61.4214 10.9083 61.4214 9.625ZM78.4302 9.625C78.4302 11.0917 78.2552 12.3833 77.9052 13.5C77.5718 14.6 77.1135 15.525 76.5302 16.275C75.9635 17.0083 75.3135 17.5667 74.5802 17.95C73.8468 18.3167 73.0885 18.5 72.3052 18.5C71.5218 18.5 70.7635 18.3167 70.0302 17.95C69.2968 17.5667 68.6385 17.0083 68.0552 16.275C67.4885 15.525 67.0302 14.6 66.6802 13.5C66.3468 12.3833 66.1802 11.0917 66.1802 9.625C66.1802 8.15833 66.3468 6.875 66.6802 5.775C67.0302 4.65833 67.4885 3.73333 68.0552 3C68.6385 2.25 69.2968 1.69167 70.0302 1.325C70.7635 0.941665 71.5218 0.749999 72.3052 0.749999C73.0885 0.749999 73.8468 0.941665 74.5802 1.325C75.3135 1.69167 75.9635 2.25 76.5302 3C77.1135 3.73333 77.5718 4.65833 77.9052 5.775C78.2552 6.875 78.4302 8.15833 78.4302 9.625ZM76.6802 9.625C76.6802 8.34167 76.5552 7.24167 76.3052 6.325C76.0718 5.40833 75.7468 4.65833 75.3302 4.075C74.9302 3.49167 74.4635 3.06667 73.9302 2.8C73.4135 2.51667 72.8718 2.375 72.3052 2.375C71.7385 2.375 71.1885 2.51667 70.6552 2.8C70.1385 3.06667 69.6718 3.49167 69.2552 4.075C68.8552 4.65833 68.5302 5.40833 68.2802 6.325C68.0468 7.24167 67.9302 8.34167 67.9302 9.625C67.9302 10.9083 68.0468 12.0083 68.2802 12.925C68.5302 13.8417 68.8552 14.5917 69.2552 15.175C69.6718 15.7583 70.1385 16.1917 70.6552 16.475C71.1885 16.7417 71.7385 16.875 72.3052 16.875C72.8718 16.875 73.4135 16.7417 73.9302 16.475C74.4635 16.1917 74.9302 15.7583 75.3302 15.175C75.7468 14.5917 76.0718 13.8417 76.3052 12.925C76.5552 12.0083 76.6802 10.9083 76.6802 9.625ZM85.689 6.625V10.5H89.189V12H85.689V15.875H84.189V12H80.689V10.5H84.189V6.625H85.689Z" fill="#E73A41"/>
    <path d="M30.7542 23.6H34.2192C34.6672 23.6 35.0662 23.663 35.4162 23.789C35.7662 23.901 36.0602 24.055 36.2982 24.251C36.5502 24.447 36.7392 24.671 36.8652 24.923C36.9912 25.175 37.0542 25.434 37.0542 25.7C37.0542 26.05 36.9842 26.337 36.8442 26.561C36.7042 26.785 36.5502 26.967 36.3822 27.107C36.1722 27.261 35.9412 27.387 35.6892 27.485V27.59C36.0392 27.66 36.3542 27.786 36.6342 27.968C36.8862 28.136 37.1032 28.353 37.2852 28.619C37.4812 28.885 37.5792 29.242 37.5792 29.69C37.5792 29.984 37.5092 30.271 37.3692 30.551C37.2292 30.817 37.0262 31.062 36.7602 31.286C36.5082 31.496 36.1932 31.671 35.8152 31.811C35.4372 31.937 35.0102 32 34.5342 32H30.7542V23.6ZM34.5342 30.74C35.0662 30.74 35.4792 30.614 35.7732 30.362C36.0672 30.096 36.2142 29.802 36.2142 29.48C36.2142 29.158 36.0672 28.871 35.7732 28.619C35.4792 28.353 35.0662 28.22 34.5342 28.22H32.0142V30.74H34.5342ZM34.2192 26.96C34.6952 26.96 35.0592 26.855 35.3112 26.645C35.5632 26.421 35.6892 26.176 35.6892 25.91C35.6892 25.644 35.5632 25.406 35.3112 25.196C35.0592 24.972 34.6952 24.86 34.2192 24.86H32.0142V26.96H34.2192ZM43.8792 23.6H49.3392V24.86H45.1392V32H43.8792V23.6ZM55.0166 31.16C55.4086 31.16 55.7866 31.076 56.1506 30.908C56.5146 30.726 56.8366 30.488 57.1166 30.194C57.4106 29.886 57.6416 29.529 57.8096 29.123C57.9776 28.717 58.0616 28.276 58.0616 27.8C58.0616 27.324 57.9776 26.883 57.8096 26.477C57.6416 26.071 57.4106 25.721 57.1166 25.427C56.8366 25.119 56.5146 24.881 56.1506 24.713C55.7866 24.531 55.4086 24.44 55.0166 24.44C54.6246 24.44 54.2466 24.531 53.8826 24.713C53.5186 24.881 53.1896 25.119 52.8956 25.427C52.6156 25.721 52.3916 26.071 52.2236 26.477C52.0556 26.883 51.9716 27.324 51.9716 27.8C51.9716 28.276 52.0556 28.717 52.2236 29.123C52.3916 29.529 52.6156 29.886 52.8956 30.194C53.1896 30.488 53.5186 30.726 53.8826 30.908C54.2466 31.076 54.6246 31.16 55.0166 31.16ZM55.0166 23.18C55.5906 23.18 56.1436 23.306 56.6756 23.558C57.2076 23.796 57.6766 24.125 58.0826 24.545C58.4886 24.965 58.8106 25.455 59.0486 26.015C59.3006 26.575 59.4266 27.17 59.4266 27.8C59.4266 28.43 59.3006 29.025 59.0486 29.585C58.8106 30.145 58.4886 30.635 58.0826 31.055C57.6766 31.475 57.2076 31.804 56.6756 32.042C56.1436 32.294 55.5906 32.42 55.0166 32.42C54.4426 32.42 53.8896 32.294 53.3576 32.042C52.8256 31.804 52.3566 31.475 51.9506 31.055C51.5446 30.635 51.2156 30.145 50.9636 29.585C50.7256 29.025 50.6066 28.43 50.6066 27.8C50.6066 27.17 50.7256 26.575 50.9636 26.015C51.2156 25.455 51.5446 24.965 51.9506 24.545C52.3566 24.125 52.8256 23.796 53.3576 23.558C53.8896 23.306 54.4426 23.18 55.0166 23.18ZM61.0016 30.74C61.1836 30.572 61.3516 30.362 61.5056 30.11C61.6456 29.886 61.7786 29.62 61.9046 29.312C62.0306 29.004 62.1146 28.64 62.1566 28.22L62.6816 23.6H68.1416V30.74H69.2966V34.1H68.0366V32H61.7366V34.1H60.4766V30.74H61.0016ZM66.8816 30.74V24.86H63.7316L63.4166 28.22C63.3746 28.64 63.2906 29.011 63.1646 29.333C63.0386 29.641 62.9126 29.9 62.7866 30.11C62.6186 30.362 62.4436 30.572 62.2616 30.74H66.8816Z" fill="#E73A41"/>
</svg>
