<svg width="1648" height="318" viewBox="0 0 1648 318" fill="none" xmlns="http://www.w3.org/2000/svg">
<g opacity="0.05">
<path d="M25.7383 57.7393H184.782V239.693L142.475 282H25.7383V57.7393Z" stroke="#EDEDED" stroke-width="4"/>
<path d="M165.043 48.1304V34H2V262.261H13.9565" stroke="#EDEDED" stroke-width="4"/>
<circle cx="69.3913" cy="240.522" r="15.3913" stroke="#EDEDED" stroke-width="4"/>
<path d="M100.914 240.521H125.914" stroke="#EDEDED" stroke-width="4"/>
<path d="M49.8281 84H75.9151" stroke="#EDEDED" stroke-width="4"/>
<path d="M112.871 84H160.697" stroke="#EDEDED" stroke-width="4"/>
<path d="M82.4336 105.739H160.694" stroke="#EDEDED" stroke-width="4"/>
<path d="M49.8281 142.696H160.698" stroke="#EDEDED" stroke-width="4"/>
<path d="M49.8281 157.913H160.698" stroke="#EDEDED" stroke-width="4"/>
<path d="M49.8281 173.13H160.698" stroke="#EDEDED" stroke-width="4"/>
<path d="M49.8281 188.348H138.959" stroke="#EDEDED" stroke-width="4"/>
<path d="M147.652 188.348H160.696" stroke="#EDEDED" stroke-width="4"/>
</g>
<g opacity="0.05">
<path d="M316.621 42H351.147H440.313V212.925V275.771H316.621V42Z" stroke="#EDEDED" stroke-width="4"/>
<path d="M362.852 235.739H394.077V275.857H362.852V235.739Z" stroke="#EDEDED" stroke-width="4"/>
<path d="M332.316 64.1338V55.4968" stroke="#EDEDED" stroke-width="4"/>
<path d="M347.727 64.1338V55.4968" stroke="#EDEDED" stroke-width="4"/>
<path d="M363.137 64.1338V55.4968" stroke="#EDEDED" stroke-width="4"/>
<path d="M378.551 64.1338V55.4968" stroke="#EDEDED" stroke-width="4"/>
<path d="M393.961 64.1338V55.4968" stroke="#EDEDED" stroke-width="4"/>
<path d="M409.371 64.1338V55.4968" stroke="#EDEDED" stroke-width="4"/>
<path d="M424.781 64.1338V55.4968" stroke="#EDEDED" stroke-width="4"/>
<path d="M332.316 83.9482V75.3113" stroke="#EDEDED" stroke-width="4"/>
<path d="M347.727 83.9482V75.3113" stroke="#EDEDED" stroke-width="4"/>
<path d="M363.137 83.9482V75.3113" stroke="#EDEDED" stroke-width="4"/>
<path d="M378.551 83.9482V75.3113" stroke="#EDEDED" stroke-width="4"/>
<path d="M393.961 83.9482V75.3113" stroke="#EDEDED" stroke-width="4"/>
<path d="M409.371 83.9482V75.3113" stroke="#EDEDED" stroke-width="4"/>
<path d="M424.781 83.9482V75.3113" stroke="#EDEDED" stroke-width="4"/>
<path d="M332.316 103.763V95.1257" stroke="#EDEDED" stroke-width="4"/>
<path d="M347.727 103.763V95.1257" stroke="#EDEDED" stroke-width="4"/>
<path d="M363.137 103.763V95.1257" stroke="#EDEDED" stroke-width="4"/>
<path d="M378.551 103.763V95.1257" stroke="#EDEDED" stroke-width="4"/>
<path d="M393.961 103.763V95.1257" stroke="#EDEDED" stroke-width="4"/>
<path d="M409.371 103.763V95.1257" stroke="#EDEDED" stroke-width="4"/>
<path d="M424.781 103.763V95.1257" stroke="#EDEDED" stroke-width="4"/>
<path d="M332.316 123.577V114.94" stroke="#EDEDED" stroke-width="4"/>
<path d="M347.727 123.577V114.94" stroke="#EDEDED" stroke-width="4"/>
<path d="M363.137 123.577V114.94" stroke="#EDEDED" stroke-width="4"/>
<path d="M378.551 123.577V114.94" stroke="#EDEDED" stroke-width="4"/>
<path d="M393.961 123.577V114.94" stroke="#EDEDED" stroke-width="4"/>
<path d="M409.371 123.577V114.94" stroke="#EDEDED" stroke-width="4"/>
<path d="M424.781 123.577V114.94" stroke="#EDEDED" stroke-width="4"/>
<path d="M332.316 143.392V134.755" stroke="#EDEDED" stroke-width="4"/>
<path d="M347.727 143.392V134.755" stroke="#EDEDED" stroke-width="4"/>
<path d="M363.137 143.392V134.755" stroke="#EDEDED" stroke-width="4"/>
<path d="M378.551 143.392V134.755" stroke="#EDEDED" stroke-width="4"/>
<path d="M393.961 143.392V134.755" stroke="#EDEDED" stroke-width="4"/>
<path d="M409.371 143.392V134.755" stroke="#EDEDED" stroke-width="4"/>
<path d="M424.781 143.392V134.755" stroke="#EDEDED" stroke-width="4"/>
<path d="M332.316 163.205V154.568" stroke="#EDEDED" stroke-width="4"/>
<path d="M347.727 163.205V154.568" stroke="#EDEDED" stroke-width="4"/>
<path d="M363.137 163.205V154.568" stroke="#EDEDED" stroke-width="4"/>
<path d="M378.551 163.205V154.568" stroke="#EDEDED" stroke-width="4"/>
<path d="M393.961 163.205V154.568" stroke="#EDEDED" stroke-width="4"/>
<path d="M409.371 163.205V154.568" stroke="#EDEDED" stroke-width="4"/>
<path d="M424.781 163.205V154.568" stroke="#EDEDED" stroke-width="4"/>
<path d="M332.316 183.02V174.383" stroke="#EDEDED" stroke-width="4"/>
<path d="M347.727 183.02V174.383" stroke="#EDEDED" stroke-width="4"/>
<path d="M363.137 183.02V174.383" stroke="#EDEDED" stroke-width="4"/>
<path d="M378.551 183.02V174.383" stroke="#EDEDED" stroke-width="4"/>
<path d="M393.961 183.02V174.383" stroke="#EDEDED" stroke-width="4"/>
<path d="M409.371 183.02V174.383" stroke="#EDEDED" stroke-width="4"/>
<path d="M424.781 183.02V174.383" stroke="#EDEDED" stroke-width="4"/>
<path d="M332.316 202.834V194.197" stroke="#EDEDED" stroke-width="4"/>
<path d="M347.727 202.834V194.197" stroke="#EDEDED" stroke-width="4"/>
<path d="M363.137 202.834V194.197" stroke="#EDEDED" stroke-width="4"/>
<path d="M378.551 202.834V194.197" stroke="#EDEDED" stroke-width="4"/>
<path d="M393.961 202.834V194.197" stroke="#EDEDED" stroke-width="4"/>
<path d="M409.371 202.834V194.197" stroke="#EDEDED" stroke-width="4"/>
<path d="M424.781 202.834V194.197" stroke="#EDEDED" stroke-width="4"/>
<path d="M332.316 222.648V214.011" stroke="#EDEDED" stroke-width="4"/>
<path d="M347.727 222.648V214.011" stroke="#EDEDED" stroke-width="4"/>
<path d="M363.137 222.648V214.011" stroke="#EDEDED" stroke-width="4"/>
<path d="M378.551 222.648V214.011" stroke="#EDEDED" stroke-width="4"/>
<path d="M393.961 222.648V214.011" stroke="#EDEDED" stroke-width="4"/>
<path d="M409.371 222.648V214.011" stroke="#EDEDED" stroke-width="4"/>
<path d="M424.781 222.648V214.011" stroke="#EDEDED" stroke-width="4"/>
<path d="M332.316 242.463V233.826" stroke="#EDEDED" stroke-width="4"/>
<path d="M347.727 242.463V233.826" stroke="#EDEDED" stroke-width="4"/>
<path d="M409.371 242.463V233.826" stroke="#EDEDED" stroke-width="4"/>
<path d="M424.781 242.463V233.826" stroke="#EDEDED" stroke-width="4"/>
<path d="M332.316 262.276V253.639" stroke="#EDEDED" stroke-width="4"/>
<path d="M347.727 262.276V253.639" stroke="#EDEDED" stroke-width="4"/>
<path d="M409.371 262.276V253.639" stroke="#EDEDED" stroke-width="4"/>
<path d="M424.781 262.276V253.639" stroke="#EDEDED" stroke-width="4"/>
<circle cx="417.296" cy="153.686" r="43.4365" fill="white" stroke="#0A2896" stroke-width="4"/>
<circle cx="417.297" cy="153.685" r="35.3395" fill="#0A2896"/>
<path d="M441.281 181.401L467.782 209.219" stroke="#EDEDED" stroke-width="4"/>
<path d="M308.015 143.474H261.781V275.569H308.015" stroke="#EDEDED" stroke-width="4"/>
<path d="M308.014 143.474H277.191V121.458H308.014" stroke="#EDEDED" stroke-width="4"/>
<path d="M305.812 156.684V262.36" stroke="#EDEDED" stroke-width="4"/>
<path d="M294.805 156.684V262.36" stroke="#EDEDED" stroke-width="4"/>
<path d="M283.797 156.684V262.36" stroke="#EDEDED" stroke-width="4"/>
<path d="M272.789 156.684V262.36" stroke="#EDEDED" stroke-width="4"/>
</g>
<g opacity="0.05">
<path d="M745.624 152.418L745.629 151.265L746.631 150.692C759.596 143.277 768.355 129.346 768.434 113.346C768.551 89.4674 749.289 70.0151 725.411 69.8978C701.533 69.7805 682.08 89.0425 681.963 112.921C681.884 128.921 690.507 142.937 703.398 150.48L704.394 151.062L704.388 152.216L704.281 173.951L710.471 186.484L710.914 187.38L710.462 188.272L704.388 200.273L710.344 212.332L710.787 213.229L710.335 214.121L704.461 225.728L724.546 246.011L745.265 225.495L745.624 152.418Z" stroke="#EDEDED" stroke-width="4"/>
<path d="M642.578 81.7463C642.675 73.7553 644.802 65.9202 648.759 58.9771C652.716 52.0339 658.373 46.2107 665.198 42.0545C672.024 37.8982 679.794 35.5454 687.779 35.217C695.764 34.8887 703.701 36.5956 710.845 40.1774C717.989 43.7592 724.105 49.0983 728.619 55.6931C733.133 62.2879 735.896 69.9219 736.649 77.8779C737.402 85.8339 736.12 93.8507 732.923 101.175C729.727 108.5 724.721 114.891 718.376 119.75" stroke="#EDEDED" stroke-width="4"/>
<circle cx="725.482" cy="111.103" r="12.8136" stroke="#EDEDED" stroke-width="4"/>
<path d="M679.791 90.2607L667.441 77.9111C665.489 75.9585 662.323 75.9585 660.37 77.9111L564.188 174.093C562.235 176.046 562.235 179.212 564.188 181.164L606.758 223.734C608.71 225.687 611.876 225.687 613.829 223.734L687.733 149.83" stroke="#EDEDED" stroke-width="4"/>
<path d="M580.512 177.629L598.382 159.758" stroke="#EDEDED" stroke-width="4"/>
<path d="M604.336 153.801L642.063 116.074" stroke="#EDEDED" stroke-width="4"/>
<path d="M651.992 126.001L634.121 143.872" stroke="#EDEDED" stroke-width="4"/>
<path d="M628.164 149.829L590.437 187.556" stroke="#EDEDED" stroke-width="4"/>
<path d="M671.848 145.858L653.977 163.729" stroke="#EDEDED" stroke-width="4"/>
<path d="M648.02 169.688L610.292 207.415" stroke="#EDEDED" stroke-width="4"/>
<path d="M732.891 155.543V202.453" stroke="#EDEDED" stroke-width="4"/>
<path d="M725.484 155.543V180.232" stroke="#EDEDED" stroke-width="4"/>
</g>
<g opacity="0.05">
<path d="M1108.61 75.7031H1119.84M1144.54 161.042V75.7031H1132.19M1119.84 75.7031V167.779M1119.84 75.7031H1132.19M1132.19 75.7031V167.779" stroke="#EDEDED" stroke-width="4"/>
<path d="M1099.63 101.529V88.6163M1099.63 134.093V167.779H1141.17H1162.51V255.364H1099.63H1006.43M953.652 140.83V179.008M953.652 140.83V117.25M953.652 140.83H967.127M1028.89 175.64V158.796M1028.89 158.796V125.11V140.83H980.601M1028.89 158.796H1040.11M1006.43 255.364H953.652V179.008M1006.43 255.364V235.152H980.601V179.008M980.601 140.83V179.008M980.601 140.83H967.127M980.601 179.008H953.652M980.601 75.7031H953.652V117.25M980.601 75.7031V117.25H967.127M980.601 75.7031H1028.89M953.652 117.25H967.127M967.127 140.83V117.25M1028.89 75.7031V94.7921M1028.89 75.7031H1045.73M1045.73 75.7031H1099.63V88.6163M1045.73 75.7031V88.6163H1099.63" stroke="#EDEDED" stroke-width="4"/>
<path d="M1052.22 185.5H1077.42V195.852V228.415V239.89H1052.22V185.5Z" stroke="#EDEDED" stroke-width="4"/>
<path d="M1129.07 212.695C1129.07 219.139 1127.17 224.893 1124.19 228.986C1121.21 233.081 1117.27 235.398 1113.1 235.398C1108.94 235.398 1104.99 233.081 1102.02 228.986C1099.04 224.893 1097.14 219.139 1097.14 212.695C1097.14 206.25 1099.04 200.496 1102.02 196.403C1104.99 192.308 1108.94 189.991 1113.1 189.991C1117.27 189.991 1121.21 192.308 1124.19 196.403C1127.17 200.496 1129.07 206.25 1129.07 212.695Z" stroke="#EDEDED" stroke-width="4"/>
</g>
<g opacity="0.05">
<path d="M1345.69 97.3333V239H1427.35M1345.69 97.3333L1379.02 64M1345.69 97.3333H1379.02V64M1379.02 64H1470.69V191.5" stroke="#EDEDED" stroke-width="4"/>
<circle cx="1459.85" cy="224.834" r="27.1667" stroke="#EDEDED" stroke-width="4"/>
<path d="M1402.36 205.667H1365.69" stroke="#EDEDED" stroke-width="4"/>
<path d="M1425.69 189H1365.69" stroke="#EDEDED" stroke-width="4"/>
<path d="M1425.69 97.333H1450.69" stroke="#EDEDED" stroke-width="4"/>
<path d="M1410.69 80.667H1450.69" stroke="#EDEDED" stroke-width="4"/>
<path d="M1450.69 160.667H1365.69" stroke="#EDEDED" stroke-width="4"/>
<path d="M1450.69 149H1365.69" stroke="#EDEDED" stroke-width="4"/>
<path d="M1450.69 137.333H1365.69" stroke="#EDEDED" stroke-width="4"/>
<path d="M1450.69 125.667H1382.35" stroke="#EDEDED" stroke-width="4"/>
<path d="M1375.69 125.667H1365.69" stroke="#EDEDED" stroke-width="4"/>
<path d="M1460.06 228.813V229.873H1464.32V231.813H1460.06V233.333H1456.08V231.813H1454.22V229.873H1456.08V219.333H1462.48C1464.44 219.333 1465.97 219.733 1467.06 220.533C1468.15 221.333 1468.7 222.513 1468.7 224.073C1468.7 225.633 1468.15 226.813 1467.06 227.613C1465.97 228.413 1464.44 228.813 1462.48 228.813H1460.06ZM1464.7 224.113C1464.7 223.58 1464.5 223.173 1464.1 222.893C1463.71 222.6 1463.16 222.453 1462.44 222.453H1460.06V225.793H1462.44C1463.16 225.793 1463.71 225.646 1464.1 225.353C1464.5 225.06 1464.7 224.646 1464.7 224.113Z" fill="#EDEDED"/>
</g>
</svg>
