<svg width="882" height="2" viewBox="0 0 882 2" fill="none" xmlns="http://www.w3.org/2000/svg">
<path d="M1.71429 0H4.28571C5.23249 0 6 0.447715 6 1V2H0V1C0 0.447715 0.767512 0 1.71429 0Z" fill="white"/>
<path d="M13.7143 0H16.2857C17.2325 0 18 0.447715 18 1V2H12V1C12 0.447715 12.7675 0 13.7143 0Z" fill="white"/>
<path d="M25.7143 0H28.2857C29.2325 0 30 0.447715 30 1V2H24V1C24 0.447715 24.7675 0 25.7143 0Z" fill="white"/>
<path d="M37.7143 0H40.2857C41.2325 0 42 0.447715 42 1V2H36V1C36 0.447715 36.7675 0 37.7143 0Z" fill="white"/>
<path d="M49.7143 0H52.2857C53.2325 0 54 0.447715 54 1V2H48V1C48 0.447715 48.7675 0 49.7143 0Z" fill="white"/>
<path d="M61.7143 0H64.2857C65.2325 0 66 0.447715 66 1V2H60V1C60 0.447715 60.7675 0 61.7143 0Z" fill="white"/>
<path d="M73.7143 0H76.2857C77.2325 0 78 0.447715 78 1V2H72V1C72 0.447715 72.7675 0 73.7143 0Z" fill="white"/>
<path d="M85.7143 0H88.2857C89.2325 0 90 0.447715 90 1V2H84V1C84 0.447715 84.7675 0 85.7143 0Z" fill="white"/>
<path d="M97.7143 0H100.286C101.232 0 102 0.447715 102 1V2H96V1C96 0.447715 96.7675 0 97.7143 0Z" fill="white"/>
<path d="M109.714 0H112.286C113.232 0 114 0.447715 114 1V2H108V1C108 0.447715 108.768 0 109.714 0Z" fill="white"/>
<path d="M121.714 0H124.286C125.232 0 126 0.447715 126 1V2H120V1C120 0.447715 120.768 0 121.714 0Z" fill="white"/>
<path d="M133.714 0H136.286C137.232 0 138 0.447715 138 1V2H132V1C132 0.447715 132.768 0 133.714 0Z" fill="white"/>
<path d="M145.714 0H148.286C149.232 0 150 0.447715 150 1V2H144V1C144 0.447715 144.768 0 145.714 0Z" fill="white"/>
<path d="M157.714 0H160.286C161.232 0 162 0.447715 162 1V2H156V1C156 0.447715 156.768 0 157.714 0Z" fill="white"/>
<path d="M169.714 0H172.286C173.232 0 174 0.447715 174 1V2H168V1C168 0.447715 168.768 0 169.714 0Z" fill="white"/>
<path d="M181.714 0H184.286C185.232 0 186 0.447715 186 1V2H180V1C180 0.447715 180.768 0 181.714 0Z" fill="white"/>
<path d="M193.714 0H196.286C197.232 0 198 0.447715 198 1V2H192V1C192 0.447715 192.768 0 193.714 0Z" fill="white"/>
<path d="M205.714 0H208.286C209.232 0 210 0.447715 210 1V2H204V1C204 0.447715 204.768 0 205.714 0Z" fill="white"/>
<path d="M217.714 0H220.286C221.232 0 222 0.447715 222 1V2H216V1C216 0.447715 216.768 0 217.714 0Z" fill="white"/>
<path d="M229.714 0H232.286C233.232 0 234 0.447715 234 1V2H228V1C228 0.447715 228.768 0 229.714 0Z" fill="white"/>
<path d="M241.714 0H244.286C245.232 0 246 0.447715 246 1V2H240V1C240 0.447715 240.768 0 241.714 0Z" fill="white"/>
<path d="M253.714 0H256.286C257.232 0 258 0.447715 258 1V2H252V1C252 0.447715 252.768 0 253.714 0Z" fill="white"/>
<path d="M265.714 0H268.286C269.232 0 270 0.447715 270 1V2H264V1C264 0.447715 264.768 0 265.714 0Z" fill="white"/>
<path d="M277.714 0H280.286C281.232 0 282 0.447715 282 1V2H276V1C276 0.447715 276.768 0 277.714 0Z" fill="white"/>
<path d="M289.714 0H292.286C293.232 0 294 0.447715 294 1V2H288V1C288 0.447715 288.768 0 289.714 0Z" fill="white"/>
<path d="M301.714 0H304.286C305.232 0 306 0.447715 306 1V2H300V1C300 0.447715 300.768 0 301.714 0Z" fill="white"/>
<path d="M313.714 0H316.286C317.232 0 318 0.447715 318 1V2H312V1C312 0.447715 312.768 0 313.714 0Z" fill="white"/>
<path d="M325.714 0H328.286C329.232 0 330 0.447715 330 1V2H324V1C324 0.447715 324.768 0 325.714 0Z" fill="white"/>
<path d="M337.714 0H340.286C341.232 0 342 0.447715 342 1V2H336V1C336 0.447715 336.768 0 337.714 0Z" fill="white"/>
<path d="M349.714 0H352.286C353.232 0 354 0.447715 354 1V2H348V1C348 0.447715 348.768 0 349.714 0Z" fill="white"/>
<path d="M361.714 0H364.286C365.232 0 366 0.447715 366 1V2H360V1C360 0.447715 360.768 0 361.714 0Z" fill="white"/>
<path d="M373.714 0H376.286C377.232 0 378 0.447715 378 1V2H372V1C372 0.447715 372.768 0 373.714 0Z" fill="white"/>
<path d="M385.714 0H388.286C389.232 0 390 0.447715 390 1V2H384V1C384 0.447715 384.768 0 385.714 0Z" fill="white"/>
<path d="M397.714 0H400.286C401.232 0 402 0.447715 402 1V2H396V1C396 0.447715 396.768 0 397.714 0Z" fill="white"/>
<path d="M409.714 0H412.286C413.232 0 414 0.447715 414 1V2H408V1C408 0.447715 408.768 0 409.714 0Z" fill="white"/>
<path d="M421.714 0H424.286C425.232 0 426 0.447715 426 1V2H420V1C420 0.447715 420.768 0 421.714 0Z" fill="white"/>
<path d="M433.714 0H436.286C437.232 0 438 0.447715 438 1V2H432V1C432 0.447715 432.768 0 433.714 0Z" fill="white"/>
<path d="M445.714 0H448.286C449.232 0 450 0.447715 450 1V2H444V1C444 0.447715 444.768 0 445.714 0Z" fill="white"/>
<path d="M457.714 0H460.286C461.232 0 462 0.447715 462 1V2H456V1C456 0.447715 456.768 0 457.714 0Z" fill="white"/>
<path d="M469.714 0H472.286C473.232 0 474 0.447715 474 1V2H468V1C468 0.447715 468.768 0 469.714 0Z" fill="white"/>
<path d="M481.714 0H484.286C485.232 0 486 0.447715 486 1V2H480V1C480 0.447715 480.768 0 481.714 0Z" fill="white"/>
<path d="M493.714 0H496.286C497.232 0 498 0.447715 498 1V2H492V1C492 0.447715 492.768 0 493.714 0Z" fill="white"/>
<path d="M505.714 0H508.286C509.232 0 510 0.447715 510 1V2H504V1C504 0.447715 504.768 0 505.714 0Z" fill="white"/>
<path d="M517.714 0H520.286C521.232 0 522 0.447715 522 1V2H516V1C516 0.447715 516.768 0 517.714 0Z" fill="white"/>
<path d="M529.714 0H532.286C533.232 0 534 0.447715 534 1V2H528V1C528 0.447715 528.768 0 529.714 0Z" fill="white"/>
<path d="M541.714 0H544.286C545.232 0 546 0.447715 546 1V2H540V1C540 0.447715 540.768 0 541.714 0Z" fill="white"/>
<path d="M553.714 0H556.286C557.232 0 558 0.447715 558 1V2H552V1C552 0.447715 552.768 0 553.714 0Z" fill="white"/>
<path d="M565.714 0H568.286C569.232 0 570 0.447715 570 1V2H564V1C564 0.447715 564.768 0 565.714 0Z" fill="white"/>
<path d="M577.714 0H580.286C581.232 0 582 0.447715 582 1V2H576V1C576 0.447715 576.768 0 577.714 0Z" fill="white"/>
<path d="M589.714 0H592.286C593.232 0 594 0.447715 594 1V2H588V1C588 0.447715 588.768 0 589.714 0Z" fill="white"/>
<path d="M601.714 0H604.286C605.232 0 606 0.447715 606 1V2H600V1C600 0.447715 600.768 0 601.714 0Z" fill="white"/>
<path d="M613.714 0H616.286C617.232 0 618 0.447715 618 1V2H612V1C612 0.447715 612.768 0 613.714 0Z" fill="white"/>
<path d="M625.714 0H628.286C629.232 0 630 0.447715 630 1V2H624V1C624 0.447715 624.768 0 625.714 0Z" fill="white"/>
<path d="M637.714 0H640.286C641.232 0 642 0.447715 642 1V2H636V1C636 0.447715 636.768 0 637.714 0Z" fill="white"/>
<path d="M649.714 0H652.286C653.232 0 654 0.447715 654 1V2H648V1C648 0.447715 648.768 0 649.714 0Z" fill="white"/>
<path d="M661.714 0H664.286C665.232 0 666 0.447715 666 1V2H660V1C660 0.447715 660.768 0 661.714 0Z" fill="white"/>
<path d="M673.714 0H676.286C677.232 0 678 0.447715 678 1V2H672V1C672 0.447715 672.768 0 673.714 0Z" fill="white"/>
<path d="M685.714 0H688.286C689.232 0 690 0.447715 690 1V2H684V1C684 0.447715 684.768 0 685.714 0Z" fill="white"/>
<path d="M697.714 0H700.286C701.232 0 702 0.447715 702 1V2H696V1C696 0.447715 696.768 0 697.714 0Z" fill="white"/>
<path d="M709.714 0H712.286C713.232 0 714 0.447715 714 1V2H708V1C708 0.447715 708.768 0 709.714 0Z" fill="white"/>
<path d="M721.714 0H724.286C725.232 0 726 0.447715 726 1V2H720V1C720 0.447715 720.768 0 721.714 0Z" fill="white"/>
<path d="M733.714 0H736.286C737.232 0 738 0.447715 738 1V2H732V1C732 0.447715 732.768 0 733.714 0Z" fill="white"/>
<path d="M745.714 0H748.286C749.232 0 750 0.447715 750 1V2H744V1C744 0.447715 744.768 0 745.714 0Z" fill="white"/>
<path d="M757.714 0H760.286C761.232 0 762 0.447715 762 1V2H756V1C756 0.447715 756.768 0 757.714 0Z" fill="white"/>
<path d="M769.714 0H772.286C773.232 0 774 0.447715 774 1V2H768V1C768 0.447715 768.768 0 769.714 0Z" fill="white"/>
<path d="M781.714 0H784.286C785.232 0 786 0.447715 786 1V2H780V1C780 0.447715 780.768 0 781.714 0Z" fill="white"/>
<path d="M793.714 0H796.286C797.232 0 798 0.447715 798 1V2H792V1C792 0.447715 792.768 0 793.714 0Z" fill="white"/>
<path d="M805.714 0H808.286C809.232 0 810 0.447715 810 1V2H804V1C804 0.447715 804.768 0 805.714 0Z" fill="white"/>
<path d="M817.714 0H820.286C821.232 0 822 0.447715 822 1V2H816V1C816 0.447715 816.768 0 817.714 0Z" fill="white"/>
<path d="M829.714 0H832.286C833.232 0 834 0.447715 834 1V2H828V1C828 0.447715 828.768 0 829.714 0Z" fill="white"/>
<path d="M841.714 0H844.286C845.232 0 846 0.447715 846 1V2H840V1C840 0.447715 840.768 0 841.714 0Z" fill="white"/>
<path d="M853.714 0H856.286C857.232 0 858 0.447715 858 1V2H852V1C852 0.447715 852.768 0 853.714 0Z" fill="white"/>
<path d="M865.714 0H868.286C869.232 0 870 0.447715 870 1V2H864V1C864 0.447715 864.768 0 865.714 0Z" fill="white"/>
<path d="M877.714 0H880.286C881.232 0 882 0.447715 882 1V2H876V1C876 0.447715 876.768 0 877.714 0Z" fill="white"/>
</svg>
