<svg width="24" height="25" viewBox="0 0 24 25" fill="none" xmlns="http://www.w3.org/2000/svg">
    <path d="M1.125 8.375C1.125 4.64708 4.14708 1.625 7.875 1.625H16.125C19.8529 1.625 22.875 4.64708 22.875 8.375V16.625C22.875 20.3529 19.8529 23.375 16.125 23.375H7.875C4.14708 23.375 1.125 20.3529 1.125 16.625V8.375Z" stroke="#F02305" stroke-width="2.25"/>
    <path d="M1.125 8.375C1.125 4.64708 4.14708 1.625 7.875 1.625H16.125C19.8529 1.625 22.875 4.64708 22.875 8.375V16.625C22.875 20.3529 19.8529 23.375 16.125 23.375H7.875C4.14708 23.375 1.125 20.3529 1.125 16.625V8.375Z" stroke="url(#paint0_linear)" stroke-width="2.25"/>
    <path d="M1.125 8.375C1.125 4.64708 4.14708 1.625 7.875 1.625H16.125C19.8529 1.625 22.875 4.64708 22.875 8.375V16.625C22.875 20.3529 19.8529 23.375 16.125 23.375H7.875C4.14708 23.375 1.125 20.3529 1.125 16.625V8.375Z" stroke="url(#paint1_linear)" stroke-width="2.25"/>
    <path d="M7.125 12.5C7.125 9.80761 9.30761 7.625 12 7.625C14.6924 7.625 16.875 9.80761 16.875 12.5C16.875 15.1924 14.6924 17.375 12 17.375C9.30761 17.375 7.125 15.1924 7.125 12.5Z" stroke="#F02305" stroke-width="2.25"/>
    <path d="M7.125 12.5C7.125 9.80761 9.30761 7.625 12 7.625C14.6924 7.625 16.875 9.80761 16.875 12.5C16.875 15.1924 14.6924 17.375 12 17.375C9.30761 17.375 7.125 15.1924 7.125 12.5Z" stroke="url(#paint2_linear)" stroke-width="2.25"/>
    <path d="M7.125 12.5C7.125 9.80761 9.30761 7.625 12 7.625C14.6924 7.625 16.875 9.80761 16.875 12.5C16.875 15.1924 14.6924 17.375 12 17.375C9.30761 17.375 7.125 15.1924 7.125 12.5Z" stroke="url(#paint3_linear)" stroke-width="2.25"/>
    <defs>
        <linearGradient id="paint0_linear" x1="12" y1="1.625" x2="12" y2="12.875" gradientUnits="userSpaceOnUse">
            <stop stop-color="#C127A1"/>
            <stop offset="1" stop-color="#C127A1" stop-opacity="0"/>
        </linearGradient>
        <linearGradient id="paint1_linear" x1="12" y1="24.125" x2="12" y2="12.5" gradientUnits="userSpaceOnUse">
            <stop stop-color="#F9AC19"/>
            <stop offset="1" stop-color="#F9AC19" stop-opacity="0"/>
        </linearGradient>
        <linearGradient id="paint2_linear" x1="12" y1="1.625" x2="12" y2="12.875" gradientUnits="userSpaceOnUse">
            <stop stop-color="#C127A1"/>
            <stop offset="1" stop-color="#C127A1" stop-opacity="0"/>
        </linearGradient>
        <linearGradient id="paint3_linear" x1="12" y1="24.125" x2="12" y2="12.5" gradientUnits="userSpaceOnUse">
            <stop stop-color="#F9AC19"/>
            <stop offset="1" stop-color="#F9AC19" stop-opacity="0"/>
        </linearGradient>
    </defs>
</svg>
