<svg width="12" height="16" viewBox="0 0 12 16" fill="none" xmlns="http://www.w3.org/2000/svg">
    <path d="M11 5.86667C11 6.67893 10.6985 7.66799 10.1651 8.75243C9.63894 9.82239 8.92678 10.9062 8.19762 11.8865C7.47078 12.8637 6.74158 13.7187 6.1931 14.3302C6.12582 14.4052 6.06134 14.4764 6 14.5437C5.93866 14.4764 5.87418 14.4052 5.8069 14.3302C5.25842 13.7187 4.52922 12.8637 3.80238 11.8865C3.07322 10.9062 2.36106 9.82239 1.83485 8.75243C1.30152 7.66799 1 6.67893 1 5.86667C1 3.19995 3.21727 1 6 1C8.78273 1 11 3.19995 11 5.86667Z" stroke="#B3B3B3" stroke-width="2"/>
</svg>
