<svg width="266" height="73" viewBox="0 0 266 73" fill="none" xmlns="http://www.w3.org/2000/svg">
<path fill-rule="evenodd" clip-rule="evenodd" d="M13.4161 0.258789H10.3201C6.04536 0.258789 2.58002 3.72413 2.58002 7.99885V68.2005C2.58002 70.0672 1.60064 71.797 0 72.7573H13.4161H16.5121H18.3181C21.7379 72.7573 24.5102 69.9851 24.5102 66.5653V40.5071C24.5102 37.0873 21.7379 34.315 18.3181 34.315H16.5121H13.4161V0.258789ZM16.5121 37.1531H13.4161V69.9193H16.5121V37.1531ZM19.608 9.54703C22.1728 9.54703 24.252 7.46782 24.252 4.90299C24.252 2.33816 22.1728 0.258958 19.608 0.258958C17.0432 0.258958 14.964 2.33816 14.964 4.90299C14.964 7.46782 17.0432 9.54703 19.608 9.54703Z" fill="#0A2896"/>
<path fill-rule="evenodd" clip-rule="evenodd" d="M254.904 0.258789H251.808C247.534 0.258789 244.068 3.72413 244.068 7.99885V68.2005C244.068 70.0672 243.089 71.797 241.488 72.7573H254.904H258H259.806C263.226 72.7573 265.998 69.9851 265.998 66.5653V40.5071C265.998 37.0873 263.226 34.315 259.806 34.315H258H254.904V0.258789ZM258 37.1531H254.904V69.9193H258V37.1531ZM261.096 9.54703C263.661 9.54703 265.74 7.46782 265.74 4.90299C265.74 2.33816 263.661 0.258958 261.096 0.258958C258.531 0.258958 256.452 2.33816 256.452 4.90299C256.452 7.46782 258.531 9.54703 261.096 9.54703Z" fill="#0A2896"/>
<circle cx="159.188" cy="52.8911" r="5.93404" fill="#0A2896"/>
<path d="M39.7335 37.1535V34.3154H25.0273V37.1535H27.3494V68.8841C27.3494 70.1889 26.3301 71.2663 25.0273 71.3387V72.7577H31.7733C32.4896 72.7577 33.1802 72.4648 33.6403 71.9158C36.3869 68.6387 37.8136 64.9434 39.2175 60.6316H39.9915V68.8877C39.9915 70.1701 38.9519 71.2097 37.6694 71.2097V72.7577H52.3756V70.9517H49.7955V60.6316V37.1535H51.6015V34.4444H46.5479C45.7486 34.4444 44.9918 34.8138 44.5107 35.4522C41.794 39.0574 39.9395 42.1518 38.0564 48.7635H37.1534V37.1535H39.7335Z" fill="#0A2896"/>
<path fill-rule="evenodd" clip-rule="evenodd" d="M53.4079 49.2788V44.1041C53.4079 43.8691 53.4065 43.6314 53.4051 43.392C53.3901 40.7611 53.3738 37.9218 55.1472 36.0434C55.3191 35.8614 55.503 35.6977 55.7007 35.5494C57.3906 34.2822 59.6496 34.2973 61.7936 34.3116C62.0188 34.3131 62.2427 34.3146 62.4646 34.3146H64.7594V34.3146L66.5654 34.3146C70.5552 34.3146 73.7895 37.5489 73.7895 41.5386V43.8606C73.7895 47.8504 70.5552 51.0847 66.5654 51.0847L64.7596 51.0847V51.0852L67.0814 51.0852C70.7862 51.0852 73.7895 54.0885 73.7895 57.7932V66.0493C73.7895 69.754 70.7862 72.7573 67.0814 72.7573L64.7594 72.7573V72.7569H62.4647C62.243 72.7569 62.0192 72.7584 61.7941 72.7599H61.7937C59.6498 72.7743 57.3908 72.7893 55.7008 71.5222C55.2247 71.1651 54.8285 70.7182 54.4885 70.1426C53.4291 68.3491 53.408 66.1573 53.408 64.0742V57.7928C54.85 57.7928 56.3056 58.0791 57.5061 58.8779C58.6166 59.617 59.4084 60.4075 60.042 61.4513C61.2764 63.4847 61.4061 65.9671 61.4061 68.3458V69.1449H64.7594V52.3751H61.1476V49.7951H64.7594V37.9267H61.4059V38.7258C61.4059 41.1045 61.2763 43.5869 60.0419 45.6202C59.4082 46.6641 58.6165 47.4546 57.5059 48.1936C56.3054 48.9925 54.8498 49.2788 53.4079 49.2788Z" fill="#0A2896"/>
<path d="M79.7233 34.3154H73.5312V36.6374C75.0969 36.6374 76.3643 37.9098 76.3583 39.4754L76.2498 69.0167C76.2445 70.3719 75.1444 71.4677 73.7893 71.4677V72.7577H88.7534V70.4357C87.186 70.4357 85.9153 69.1651 85.9153 67.5977V54.1816H88.7534V66.5657C88.7534 69.9854 91.5256 72.7577 94.9454 72.7577H101.137V70.4357C99.5701 70.4357 98.2994 69.1651 98.2994 67.5977V36.6374H100.879V34.3154H85.9153V36.6374H88.7534V49.5375H85.9153V40.5075C85.9153 37.0877 83.1431 34.3154 79.7233 34.3154Z" fill="#0A2896"/>
<path fill-rule="evenodd" clip-rule="evenodd" d="M109.908 34.3154H110.682H114.552V37.4115H110.682V53.6654H114.552V56.7614H110.682V72.7577H109.908C105.491 72.7577 101.91 69.1769 101.91 64.7597V42.3135C101.91 37.8963 105.491 34.3154 109.908 34.3154ZM114.552 34.3154H115.326C119.744 34.3154 123.324 37.8963 123.324 42.3135V48.7635C123.324 53.1807 119.744 56.7616 115.326 56.7616H114.552V34.3154ZM123.324 62.0775V60.6317C120.977 60.6317 118.524 60.9958 116.714 62.4908C116.327 62.8107 115.977 63.1579 115.663 63.5493C114.39 65.1388 114.294 67.3109 114.294 69.3476V69.9198H110.682V72.7578H115.507C116.343 72.7002 117.55 72.5318 118.781 72.1302C122.672 70.8602 123.324 66.1704 123.324 62.0775Z" fill="#0A2896"/>
<path fill-rule="evenodd" clip-rule="evenodd" d="M134.162 34.3154H134.936H134.936H142.16C145.422 34.9649 146.772 35.9942 147.707 39.8625V49.2795C146.265 49.2795 144.812 48.99 143.605 48.2014C142.475 47.4633 141.65 46.6745 140.99 45.6335C139.706 43.6071 139.58 41.0948 139.58 38.6956V37.9275H134.936V69.1458H139.58V68.3777C139.58 65.9784 139.706 63.4662 140.99 61.4398C141.65 60.3988 142.475 59.6099 143.605 58.8718C144.812 58.0832 146.265 57.7937 147.707 57.7937V64.5054C147.707 66.3026 147.64 68.1605 146.832 69.7659C145.907 71.6058 144.544 72.2832 142.16 72.7578H134.936V72.7577H134.162C129.745 72.7577 126.164 69.1769 126.164 64.7597V42.3135C126.164 37.8963 129.745 34.3154 134.162 34.3154Z" fill="#0A2896"/>
<path fill-rule="evenodd" clip-rule="evenodd" d="M191.698 34.3154C187.105 34.3154 183.184 37.8695 183.184 42.5715V51.0853H178.798V53.6653H183.184V65.0177C183.184 69.7197 187.105 72.7577 191.698 72.7577H194.02V69.9197H191.698V58.0516C191.698 54.1265 187.782 52.3781 183.194 52.3756C187.782 52.373 191.698 50.6246 191.698 46.6995V37.1535H194.794V34.3154H191.698ZM182.667 34.316H168.219V37.154H170.799V69.9203H168.219V72.7583H170.799H178.797H181.635V69.9203H178.797V37.154H182.667V34.316Z" fill="#0A2896"/>
<path fill-rule="evenodd" clip-rule="evenodd" d="M216.722 34.3154H206.66V69.4037C205.389 70.7743 204.349 71.1234 202.274 71.4677V72.7577H206.66H216.722H218.012V69.9197H216.722V37.1535H218.012V34.3154H216.722ZM195.566 39.9921C195.566 36.8573 198.108 34.316 201.242 34.316H204.08V34.3154H206.66V37.1535H204.08V64.2442C204.08 68.9464 200.269 72.7583 195.566 72.7583V39.9921Z" fill="#0A2896"/>
<path fill-rule="evenodd" clip-rule="evenodd" d="M229.878 34.3154H242.779V37.1535H239.941V66.5657C239.941 69.9854 237.168 72.7577 233.748 72.7577L232.717 72.7577L232.716 72.7577L227.892 72.7577C227.056 72.7001 225.849 72.5317 224.618 72.1301C220.727 70.8601 220.075 66.1703 220.075 62.0774V60.6316C222.422 60.6316 224.875 60.9957 226.685 62.4907C227.072 62.8106 227.422 63.1578 227.736 63.5492C229.009 65.1387 229.105 67.3108 229.105 69.3475V69.9197H232.716V59.0835H228.331V59.0842H227.299C223.594 59.0842 220.591 56.0809 220.591 52.3761V37.154H219.301V34.316H220.591H221.623C225.328 34.316 228.331 37.3193 228.331 41.0241V54.9555H232.716V37.1535H229.878V34.3154Z" fill="#0A2896"/>
<path d="M34.2495 24.6113H32.567V20.2914H28.2204V24.6113H26.5311V14.8899H28.2204V18.936H32.567V14.8899H34.2495V24.6113ZM50.4125 20.2714H46.4197V23.2626H51.0868V24.6113H44.7305V14.8899H51.0401V16.252H46.4197V18.936H50.4125V20.2714ZM69.8804 27.0016H68.278V24.6113H61.875V27.0016H60.2458L60.1924 23.2626H60.9736C61.3608 22.8887 61.6702 22.3457 61.9017 21.6335C62.1331 20.9168 62.2822 20.1067 62.349 19.2031L62.6027 14.8899H68.732V23.2626H69.9672L69.8804 27.0016ZM62.8832 23.2626H67.0495V16.252H64.2118L64.0516 18.9895C63.9314 20.8189 63.5419 22.2433 62.8832 23.2626ZM79.7138 24.6113V14.8899H83.0455C84.145 14.8899 84.9818 15.1102 85.556 15.5509C86.1302 15.9916 86.4173 16.6481 86.4173 17.5206C86.4173 17.9657 86.2971 18.3663 86.0568 18.7224C85.8164 19.0785 85.4647 19.3545 85.0018 19.5503C85.5271 19.6927 85.9321 19.962 86.217 20.3582C86.5063 20.7499 86.651 21.2217 86.651 21.7737C86.651 22.6862 86.3572 23.3872 85.7696 23.8769C85.1865 24.3665 84.3497 24.6113 83.2592 24.6113H79.7138ZM81.403 20.2247V23.2626H83.2792C83.8089 23.2626 84.2229 23.1313 84.5211 22.8687C84.8193 22.6061 84.9684 22.2411 84.9684 21.7737C84.9684 20.7633 84.4521 20.2469 83.4194 20.2247H81.403ZM81.403 18.9828H83.0589C83.5841 18.9828 83.9936 18.8648 84.2874 18.6289C84.5856 18.3885 84.7347 18.0503 84.7347 17.614C84.7347 17.1333 84.5968 16.7861 84.3208 16.5725C84.0493 16.3588 83.6242 16.252 83.0455 16.252H81.403V18.9828ZM102.774 14.8899H104.463V24.6113H102.774V17.6875L98.5074 24.6113H96.8182V14.8899H98.5074V21.8204L102.774 14.8899ZM122.636 20.4183H121.547V24.6113H119.865V20.4183H118.73L116.346 24.6113H114.243L117.374 19.4368L114.45 14.8899H116.493L118.817 18.9494H119.865V14.8899H121.547V18.9494H122.549L124.852 14.8899H126.889L123.991 19.4234L127.096 24.6113H124.999L122.636 20.4183ZM142.564 14.8899H144.254V24.6113H142.564V17.6875L138.298 24.6113H136.609V14.8899H138.298V21.8204L142.564 14.8899ZM156.945 14.8899L159.749 22.3412L162.547 14.8899H164.73V24.6113H163.047V21.4065L163.214 17.1199L160.343 24.6113H159.135L156.27 17.1266L156.437 21.4065V24.6113H154.755V14.8899H156.945ZM182.969 20.0043C182.969 20.9569 182.805 21.7937 182.475 22.5148C182.146 23.2315 181.674 23.7834 181.06 24.1707C180.45 24.5535 179.747 24.7449 178.95 24.7449C178.162 24.7449 177.459 24.5535 176.84 24.1707C176.226 23.7834 175.749 23.2337 175.411 22.5215C175.077 21.8093 174.908 20.988 174.904 20.0577V19.5102C174.904 18.5621 175.071 17.7253 175.404 16.9998C175.743 16.2742 176.217 15.72 176.827 15.3372C177.441 14.95 178.144 14.7564 178.936 14.7564C179.729 14.7564 180.43 14.9478 181.04 15.3306C181.654 15.7089 182.128 16.2564 182.462 16.9731C182.796 17.6853 182.965 18.5154 182.969 19.4635V20.0043ZM181.28 19.4969C181.28 18.4197 181.075 17.594 180.666 17.0198C180.261 16.4456 179.684 16.1585 178.936 16.1585C178.207 16.1585 177.635 16.4456 177.221 17.0198C176.811 17.5896 176.602 18.3974 176.593 19.4435V20.0043C176.593 21.0726 176.8 21.8983 177.214 22.4814C177.632 23.0645 178.211 23.3561 178.95 23.3561C179.698 23.3561 180.272 23.0712 180.672 22.5015C181.078 21.9317 181.28 21.0993 181.28 20.0043V19.4969ZM200.548 21.4465C200.45 22.4837 200.067 23.2938 199.399 23.8769C198.732 24.4555 197.844 24.7449 196.735 24.7449C195.961 24.7449 195.278 24.5624 194.685 24.1974C194.098 23.8279 193.644 23.3049 193.323 22.6283C193.003 21.9517 192.836 21.1661 192.823 20.2714V19.3634C192.823 18.4464 192.985 17.6385 193.31 16.9397C193.635 16.2408 194.1 15.7022 194.706 15.3239C195.315 14.9455 196.019 14.7564 196.815 14.7564C197.888 14.7564 198.752 15.0479 199.406 15.631C200.06 16.2141 200.441 17.0376 200.548 18.1014H198.865C198.785 17.4026 198.58 16.8996 198.251 16.5925C197.926 16.2809 197.447 16.1251 196.815 16.1251C196.081 16.1251 195.516 16.3944 195.119 16.933C194.728 17.4671 194.527 18.2528 194.519 19.2899V20.1512C194.519 21.2017 194.706 22.0029 195.079 22.5549C195.458 23.1068 196.01 23.3828 196.735 23.3828C197.399 23.3828 197.897 23.2337 198.231 22.9354C198.565 22.6372 198.776 22.1409 198.865 21.4465H200.548ZM217.365 16.252H214.334V24.6113H212.658V16.252H209.653V14.8899H217.365V16.252ZM228.894 18.6089H230.884C231.596 18.6089 232.217 18.7313 232.747 18.9761C233.276 19.2209 233.679 19.5681 233.955 20.0177C234.231 20.4673 234.369 20.988 234.369 21.5801C234.369 22.4881 234.06 23.2181 233.441 23.7701C232.827 24.322 231.988 24.6024 230.924 24.6113H227.205V14.8899H228.894V18.6089ZM228.894 19.9643V23.2626H230.877C231.447 23.2626 231.89 23.109 232.206 22.8019C232.526 22.4903 232.687 22.0786 232.687 21.5667C232.687 21.0771 232.531 20.6898 232.219 20.4049C231.908 20.1201 231.476 19.9732 230.924 19.9643H228.894Z" fill="black"/>
</svg>
