<svg width="15" height="25" viewBox="0 0 15 25" fill="none" xmlns="http://www.w3.org/2000/svg">
    <rect x="3" y="2.25" width="8.25" height="8.25" rx="4.125" stroke="#3D4859" stroke-width="3.75"/>
    <rect x="3" y="2.25" width="8.25" height="8.25" rx="4.125" stroke="#FF9110" stroke-width="3.75"/>
    <path d="M1.54917 21.3675C0.816942 22.0998 0.816942 23.287 1.54917 24.0192C2.28141 24.7514 3.46859 24.7514 4.20083 24.0192L1.54917 21.3675ZM10.2992 24.0192C11.0314 24.7514 12.2186 24.7514 12.9508 24.0192C13.6831 23.287 13.6831 22.0998 12.9508 21.3675L10.2992 24.0192ZM3.32268 12.4622C2.47335 11.8697 1.30458 12.078 0.712152 12.9273C0.119726 13.7766 0.327987 14.9454 1.17732 15.5378L3.32268 12.4622ZM13.3227 15.5378C14.172 14.9454 14.3803 13.7766 13.7878 12.9273C13.1954 12.078 12.0266 11.8697 11.1773 12.4622L13.3227 15.5378ZM5.375 15.5684V18.3184H9.125V15.5684H5.375ZM5.92417 16.9925L1.54917 21.3675L4.20083 24.0192L8.57583 19.6442L5.92417 16.9925ZM5.92417 19.6442L10.2992 24.0192L12.9508 21.3675L8.57583 16.9925L5.92417 19.6442ZM7.25 13.6934C5.78682 13.6934 4.43552 13.2384 3.32268 12.4622L1.17732 15.5378C2.89906 16.7388 4.99506 17.4434 7.25 17.4434V13.6934ZM11.1773 12.4622C10.0645 13.2384 8.71318 13.6934 7.25 13.6934V17.4434C9.50494 17.4434 11.6009 16.7388 13.3227 15.5378L11.1773 12.4622Z" fill="#3D4859"/>
    <path d="M1.54917 21.3675C0.816942 22.0998 0.816942 23.287 1.54917 24.0192C2.28141 24.7514 3.46859 24.7514 4.20083 24.0192L1.54917 21.3675ZM10.2992 24.0192C11.0314 24.7514 12.2186 24.7514 12.9508 24.0192C13.6831 23.287 13.6831 22.0998 12.9508 21.3675L10.2992 24.0192ZM3.32268 12.4622C2.47335 11.8697 1.30458 12.078 0.712152 12.9273C0.119726 13.7766 0.327987 14.9454 1.17732 15.5378L3.32268 12.4622ZM13.3227 15.5378C14.172 14.9454 14.3803 13.7766 13.7878 12.9273C13.1954 12.078 12.0266 11.8697 11.1773 12.4622L13.3227 15.5378ZM5.375 15.5684V18.3184H9.125V15.5684H5.375ZM5.92417 16.9925L1.54917 21.3675L4.20083 24.0192L8.57583 19.6442L5.92417 16.9925ZM5.92417 19.6442L10.2992 24.0192L12.9508 21.3675L8.57583 16.9925L5.92417 19.6442ZM7.25 13.6934C5.78682 13.6934 4.43552 13.2384 3.32268 12.4622L1.17732 15.5378C2.89906 16.7388 4.99506 17.4434 7.25 17.4434V13.6934ZM11.1773 12.4622C10.0645 13.2384 8.71318 13.6934 7.25 13.6934V17.4434C9.50494 17.4434 11.6009 16.7388 13.3227 15.5378L11.1773 12.4622Z" fill="#FF9110"/>
</svg>
