<svg width="23" height="23" viewBox="0 0 23 23" fill="none" xmlns="http://www.w3.org/2000/svg">
<path d="M4.03226 3.87714L3.71496 4.19444C2.05992 5.84948 1.46626 8.3417 2.4726 10.4549C4.70035 15.1329 7.49689 17.9727 12.8291 20.7078C15.0101 21.8265 17.6465 21.2837 19.3798 19.5505L19.5428 19.3874C20.2032 18.727 20.2032 17.6563 19.5428 16.9958L17.7063 15.1594C17.0459 14.499 15.9752 14.499 15.3148 15.1594L15.0344 15.4397C14.4059 16.0681 13.4329 16.2116 12.6681 15.7588C9.90935 14.1254 8.72097 12.8963 7.65076 10.7045C7.35899 10.107 7.42541 9.40073 7.78562 8.84176L8.14451 8.28486C8.22148 8.16541 8.31457 8.05716 8.40171 7.94492C8.91676 7.28156 8.86962 6.32294 8.2603 5.71362L6.42382 3.87714C5.76341 3.21673 4.69267 3.21673 4.03226 3.87714Z" stroke="#0A2896" stroke-width="2"/>
<path d="M12.395 2.76575C13.6789 2.51936 15.007 2.65921 16.2114 3.16763C17.4158 3.67606 18.4424 4.5302 19.1614 5.62207C19.8803 6.71394 20.2594 7.99448 20.2505 9.30176C20.2417 10.609 19.8455 11.8844 19.1118 12.9664" stroke="#0A2896" stroke-width="2"/>
<path d="M11.7106 5.60616C12.3 5.49305 12.9065 5.50456 13.4911 5.63994C14.0758 5.77533 14.6256 6.03159 15.1053 6.39224C15.5849 6.75289 15.9838 7.20995 16.2762 7.73402C16.5686 8.25808 16.7481 8.83755 16.8031 9.43514" stroke="#0A2896" stroke-width="2"/>
</svg>
