<svg width="230" height="175" viewBox="0 0 230 175" fill="none" xmlns="http://www.w3.org/2000/svg">
<path opacity="0.5" d="M-39 175V95.9655C-39 59.3023 -30.4394 32.1891 -13.3182 14.6259C3.80294 -3.1569 29.8139 -13.3655 64.7148 -16L73.6047 19.2362C34.9723 25.8224 15.6561 44.2638 15.6561 74.5603C15.6561 75.4385 15.7658 76.646 15.9853 78.1828C16.2048 79.7195 16.3146 80.927 16.3146 81.8052H50.5569V175H-39ZM117.395 175V95.9655C117.395 59.5218 125.956 32.4086 143.077 14.6259C160.418 -3.1569 186.539 -13.3655 221.439 -16L230 19.2362C191.368 25.8224 172.051 44.7029 172.051 75.8776V81.8052H207.282V175H117.395Z" fill="#EDEDED"/>
</svg>
