<svg width="129" height="130" viewBox="0 0 129 130" fill="none" xmlns="http://www.w3.org/2000/svg">
<path d="M81.9679 62.7314L81.9708 62.1547L82.4715 61.8683C87.6663 58.8972 91.1754 53.316 91.2069 46.9058C91.2539 37.3392 83.5367 29.5458 73.9701 29.4988C64.4036 29.4518 56.6102 37.1689 56.5632 46.7355C56.5317 53.1458 59.9857 58.7612 65.1511 61.7832L65.6489 62.0745L65.6461 62.6512L65.6031 71.4098L68.0902 76.4458L68.3116 76.8941L68.0858 77.3402L65.6685 82.1161L68.0388 86.9154L68.2602 87.3637L68.0344 87.8099L65.7167 92.3887L73.6219 100.372L81.8229 92.2511L81.9679 62.7314Z" stroke="#0A2896" stroke-width="2"/>
<path d="M40.6132 34.11C40.6521 30.9056 41.505 27.7637 43.0918 24.9795C44.6786 22.1953 46.9471 19.8601 49.6842 18.1935C52.4214 16.5268 55.5373 15.5833 58.7392 15.4516C61.9411 15.32 65.124 16.0044 67.9887 17.4408C70.8535 18.8771 73.3061 21.0181 75.1161 23.6626C76.9261 26.3071 78.0341 29.3684 78.336 32.5588C78.6379 35.7492 78.1239 38.964 76.8421 41.9011C75.5603 44.8382 73.5529 47.4013 71.0084 49.3495" stroke="#E73A41" stroke-width="2"/>
<circle cx="74" cy="45.998" r="5" stroke="#0A2896" stroke-width="2"/>
<path d="M55.4933 37.5564L52.5948 34.6579C50.6422 32.7053 47.4764 32.7053 45.5237 34.6579L10.7738 69.4078C8.82119 71.3604 8.8212 74.5263 10.7738 76.4789L23.809 89.5141C25.7616 91.4667 28.9274 91.4667 30.8801 89.5141L58.7103 61.6839" stroke="#0A2896" stroke-width="2"/>
<path d="M15.2812 72.9434L22.5195 65.7051" stroke="#0A2896" stroke-width="2"/>
<path d="M24.9336 63.292L40.2143 48.0112" stroke="#0A2896" stroke-width="2"/>
<path d="M44.2344 52.0322L36.9961 59.2705" stroke="#0A2896" stroke-width="2"/>
<path d="M34.582 61.6836L19.3013 76.9643" stroke="#0A2896" stroke-width="2"/>
<path d="M52.2773 60.0752L45.0391 67.3134" stroke="#0A2896" stroke-width="2"/>
<path d="M42.625 69.7266L27.3442 85.0073" stroke="#0A2896" stroke-width="2"/>
<path d="M77 63.998V82.998" stroke="#0A2896" stroke-width="2"/>
<path d="M74 63.998V73.998" stroke="#0A2896" stroke-width="2"/>
</svg>
