<svg width="88" height="206" viewBox="0 0 88 206" fill="none" xmlns="http://www.w3.org/2000/svg">
<g opacity="0.45">
<path d="M148.939 51.5274V38.6143M148.939 84.091V117.777H190.486H211.821V205.362H148.939H55.7403M2.96484 90.8283V129.006M2.96484 90.8283V67.2478M2.96484 90.8283H16.4394M78.1979 125.638V108.794M78.1979 108.794V75.108V90.8283H29.914M78.1979 108.794H89.4267M55.7403 205.362H2.96484V129.006M55.7403 205.362V185.15H29.914V129.006M29.914 90.8283V129.006M29.914 90.8283H16.4394M29.914 129.006H2.96484M29.914 25.7012H2.96484V67.2478M29.914 25.7012V67.2478H16.4394M29.914 25.7012H78.1979M2.96484 67.2478H16.4394M16.4394 90.8283V67.2478M78.1979 25.7012V44.7902M78.1979 25.7012H95.0411M95.0411 25.7012H148.939V38.6143M95.0411 25.7012V38.6143H148.939" stroke="#EDEDED" stroke-width="4"/>
</g>
</svg>
