<svg width="95" height="83" viewBox="0 0 95 83" fill="none" xmlns="http://www.w3.org/2000/svg">
<path d="M70 1.99805H75M86 39.998V1.99805H80.5M75 1.99805V42.998M75 1.99805H80.5M80.5 1.99805V42.998" stroke="#E73A41" stroke-width="2"/>
<path d="M66 13.498V7.74805M66 27.998V42.998H84.5H94V81.998H66H24.5M1 30.998V47.998M1 30.998V20.498M1 30.998H7M34.5 46.498V38.998M34.5 38.998V23.998V30.998H13M34.5 38.998H39.5M24.5 81.998H1V47.998M24.5 81.998V72.998H13V47.998M13 30.998V47.998M13 30.998H7M13 47.998H1M13 1.99805H1V20.498M13 1.99805V20.498H7M13 1.99805H34.5M1 20.498H7M7 30.998V20.498M34.5 1.99805V10.498M34.5 1.99805H42M42 1.99805H66V7.74805M42 1.99805V7.74805H66" stroke="#0A2896" stroke-width="2"/>
<path d="M45 50.998H56V55.498V69.998V74.998H45V50.998Z" stroke="#E73A41" stroke-width="2"/>
<path d="M79 62.998C79 65.8472 78.1587 68.386 76.8481 70.188C75.5368 71.991 73.8104 72.998 72 72.998C70.1896 72.998 68.4632 71.991 67.1519 70.188C65.8413 68.386 65 65.8472 65 62.998C65 60.1489 65.8413 57.6101 67.1519 55.808C68.4632 54.005 70.1896 52.998 72 52.998C73.8104 52.998 75.5368 54.005 76.8481 55.808C78.1587 57.6101 79 60.1489 79 62.998Z" stroke="#0A2896" stroke-width="2"/>
</svg>
