<svg width="190" height="272" viewBox="0 0 190 272" fill="none" xmlns="http://www.w3.org/2000/svg">
<g opacity="0.45">
<path d="M202.842 153.416L202.848 152.263L203.85 151.69C216.815 144.275 225.574 130.344 225.653 114.344C225.77 90.4655 206.508 71.0132 182.63 70.8958C158.751 70.7785 139.299 90.0405 139.182 113.919C139.103 129.92 147.725 143.935 160.617 151.478L161.613 152.06L161.607 153.214L161.5 174.949L167.69 187.482L168.133 188.378L167.681 189.27L161.607 201.271L167.563 213.33L168.006 214.227L167.554 215.119L161.679 226.726L181.764 247.009L202.483 226.493L202.842 153.416Z" stroke="#EDEDED" stroke-width="4"/>
<path d="M99.7963 82.7443C99.8935 74.7534 102.02 66.9183 105.977 59.9751C109.934 53.032 115.592 47.2088 122.417 43.0525C129.243 38.8962 137.013 36.5434 144.998 36.2151C152.983 35.8867 160.92 37.5936 168.064 41.1754C175.208 44.7572 181.324 50.0963 185.838 56.6911C190.351 63.2859 193.114 70.9199 193.867 78.8759C194.62 86.8319 193.338 94.8487 190.142 102.173C186.945 109.498 181.939 115.889 175.594 120.748" stroke="#EDEDED" stroke-width="4"/>
<circle cx="182.7" cy="112.101" r="12.8136" stroke="#EDEDED" stroke-width="4"/>
<path d="M137.01 91.2587L124.66 78.9091C122.707 76.9565 119.542 76.9565 117.589 78.9091L21.4066 175.091C19.454 177.044 19.454 180.21 21.4066 182.162L63.9766 224.732C65.9292 226.685 69.095 226.685 71.0477 224.732L144.952 150.828" stroke="#EDEDED" stroke-width="4"/>
<path d="M37.7305 178.627L55.6012 160.756" stroke="#EDEDED" stroke-width="4"/>
<path d="M61.5547 154.799L99.2819 117.072" stroke="#EDEDED" stroke-width="4"/>
<path d="M109.211 126.999L91.3402 144.87" stroke="#EDEDED" stroke-width="4"/>
<path d="M85.3828 150.827L47.6556 188.554" stroke="#EDEDED" stroke-width="4"/>
<path d="M129.066 146.856L111.196 164.727" stroke="#EDEDED" stroke-width="4"/>
<path d="M105.238 170.686L67.5111 208.413" stroke="#EDEDED" stroke-width="4"/>
<path d="M190.109 156.541V203.451" stroke="#EDEDED" stroke-width="4"/>
<path d="M182.703 156.541V181.23" stroke="#EDEDED" stroke-width="4"/>
</g>
</svg>
