<svg width="96" height="110" viewBox="0 0 96 110" fill="none" xmlns="http://www.w3.org/2000/svg">
<path d="M26 1.99805H41.5909H82V79.5435V107.998H26V1.99805Z" stroke="#0A2896" stroke-width="2"/>
<path d="M47 89.998H61V108.037H47V89.998Z" stroke="#0A2896" stroke-width="2"/>
<path d="M33.0391 11.96V8.03688" stroke="#0A2896" stroke-width="2"/>
<path d="M40.0391 11.96V8.03688" stroke="#0A2896" stroke-width="2"/>
<path d="M47.0391 11.96V8.03688" stroke="#0A2896" stroke-width="2"/>
<path d="M54.0391 11.96V8.03688" stroke="#0A2896" stroke-width="2"/>
<path d="M61.0391 11.96V8.03688" stroke="#0A2896" stroke-width="2"/>
<path d="M68.0391 11.96V8.03688" stroke="#0A2896" stroke-width="2"/>
<path d="M75.0391 11.96V8.03688" stroke="#0A2896" stroke-width="2"/>
<path d="M33.0391 20.96V17.0369" stroke="#0A2896" stroke-width="2"/>
<path d="M40.0391 20.96V17.0369" stroke="#0A2896" stroke-width="2"/>
<path d="M47.0391 20.96V17.0369" stroke="#0A2896" stroke-width="2"/>
<path d="M54.0391 20.96V17.0369" stroke="#0A2896" stroke-width="2"/>
<path d="M61.0391 20.96V17.0369" stroke="#0A2896" stroke-width="2"/>
<path d="M68.0391 20.96V17.0369" stroke="#0A2896" stroke-width="2"/>
<path d="M75.0391 20.96V17.0369" stroke="#0A2896" stroke-width="2"/>
<path d="M33.0391 29.96V26.0369" stroke="#0A2896" stroke-width="2"/>
<path d="M40.0391 29.96V26.0369" stroke="#0A2896" stroke-width="2"/>
<path d="M47.0391 29.96V26.0369" stroke="#0A2896" stroke-width="2"/>
<path d="M54.0391 29.96V26.0369" stroke="#0A2896" stroke-width="2"/>
<path d="M61.0391 29.96V26.0369" stroke="#0A2896" stroke-width="2"/>
<path d="M68.0391 29.96V26.0369" stroke="#0A2896" stroke-width="2"/>
<path d="M75.0391 29.96V26.0369" stroke="#0A2896" stroke-width="2"/>
<path d="M33.0391 38.96V35.0369" stroke="#0A2896" stroke-width="2"/>
<path d="M40.0391 38.96V35.0369" stroke="#0A2896" stroke-width="2"/>
<path d="M47.0391 38.96V35.0369" stroke="#0A2896" stroke-width="2"/>
<path d="M54.0391 38.96V35.0369" stroke="#0A2896" stroke-width="2"/>
<path d="M61.0391 38.96V35.0369" stroke="#0A2896" stroke-width="2"/>
<path d="M68.0391 38.96V35.0369" stroke="#0A2896" stroke-width="2"/>
<path d="M75.0391 38.96V35.0369" stroke="#0A2896" stroke-width="2"/>
<path d="M33.0391 47.96V44.0369" stroke="#0A2896" stroke-width="2"/>
<path d="M40.0391 47.96V44.0369" stroke="#0A2896" stroke-width="2"/>
<path d="M47.0391 47.96V44.0369" stroke="#0A2896" stroke-width="2"/>
<path d="M54.0391 47.96V44.0369" stroke="#0A2896" stroke-width="2"/>
<path d="M61.0391 47.96V44.0369" stroke="#0A2896" stroke-width="2"/>
<path d="M68.0391 47.96V44.0369" stroke="#0A2896" stroke-width="2"/>
<path d="M75.0391 47.96V44.0369" stroke="#0A2896" stroke-width="2"/>
<path d="M33.0391 56.96V53.0369" stroke="#0A2896" stroke-width="2"/>
<path d="M40.0391 56.96V53.0369" stroke="#0A2896" stroke-width="2"/>
<path d="M47.0391 56.96V53.0369" stroke="#0A2896" stroke-width="2"/>
<path d="M54.0391 56.96V53.0369" stroke="#0A2896" stroke-width="2"/>
<path d="M61.0391 56.96V53.0369" stroke="#0A2896" stroke-width="2"/>
<path d="M68.0391 56.96V53.0369" stroke="#0A2896" stroke-width="2"/>
<path d="M75.0391 56.96V53.0369" stroke="#0A2896" stroke-width="2"/>
<path d="M33.0391 65.96V62.0369" stroke="#0A2896" stroke-width="2"/>
<path d="M40.0391 65.96V62.0369" stroke="#0A2896" stroke-width="2"/>
<path d="M47.0391 65.96V62.0369" stroke="#0A2896" stroke-width="2"/>
<path d="M54.0391 65.96V62.0369" stroke="#0A2896" stroke-width="2"/>
<path d="M61.0391 65.96V62.0369" stroke="#0A2896" stroke-width="2"/>
<path d="M68.0391 65.96V62.0369" stroke="#0A2896" stroke-width="2"/>
<path d="M75.0391 65.96V62.0369" stroke="#0A2896" stroke-width="2"/>
<path d="M33.0391 74.96V71.0369" stroke="#0A2896" stroke-width="2"/>
<path d="M40.0391 74.96V71.0369" stroke="#0A2896" stroke-width="2"/>
<path d="M47.0391 74.96V71.0369" stroke="#0A2896" stroke-width="2"/>
<path d="M54.0391 74.96V71.0369" stroke="#0A2896" stroke-width="2"/>
<path d="M61.0391 74.96V71.0369" stroke="#0A2896" stroke-width="2"/>
<path d="M68.0391 74.96V71.0369" stroke="#0A2896" stroke-width="2"/>
<path d="M75.0391 74.96V71.0369" stroke="#0A2896" stroke-width="2"/>
<path d="M33.0391 83.96V80.0369" stroke="#0A2896" stroke-width="2"/>
<path d="M40.0391 83.96V80.0369" stroke="#0A2896" stroke-width="2"/>
<path d="M47.0391 83.96V80.0369" stroke="#0A2896" stroke-width="2"/>
<path d="M54.0391 83.96V80.0369" stroke="#0A2896" stroke-width="2"/>
<path d="M61.0391 83.96V80.0369" stroke="#0A2896" stroke-width="2"/>
<path d="M68.0391 83.96V80.0369" stroke="#0A2896" stroke-width="2"/>
<path d="M75.0391 83.96V80.0369" stroke="#0A2896" stroke-width="2"/>
<path d="M33.0391 92.96V89.0369" stroke="#0A2896" stroke-width="2"/>
<path d="M40.0391 92.96V89.0369" stroke="#0A2896" stroke-width="2"/>
<path d="M68.0391 92.96V89.0369" stroke="#0A2896" stroke-width="2"/>
<path d="M75.0391 92.96V89.0369" stroke="#0A2896" stroke-width="2"/>
<path d="M33.0391 101.96V98.0369" stroke="#0A2896" stroke-width="2"/>
<path d="M40.0391 101.96V98.0369" stroke="#0A2896" stroke-width="2"/>
<path d="M68.0391 101.96V98.0369" stroke="#0A2896" stroke-width="2"/>
<path d="M75.0391 101.96V98.0369" stroke="#0A2896" stroke-width="2"/>
<circle cx="71.6381" cy="52.6361" r="20.6381" fill="white"/>
<circle cx="71.6378" cy="52.6358" r="15.0518" fill="white" stroke="#E73A41" stroke-width="2"/>
<path d="M80.8086 64.1016L94.5673 77.8603" stroke="#E73A41" stroke-width="2"/>
<path d="M22 47.998H1V107.998H22" stroke="#0A2896" stroke-width="2"/>
<path d="M22 47.998H8V37.998H22" stroke="#0A2896" stroke-width="2"/>
<path d="M21 53.998V101.998" stroke="#0A2896" stroke-width="2"/>
<path d="M16 53.998V101.998" stroke="#0A2896" stroke-width="2"/>
<path d="M11 53.998V101.998" stroke="#0A2896" stroke-width="2"/>
<path d="M6 53.998V101.998" stroke="#0A2896" stroke-width="2"/>
</svg>
