<svg width="87" height="116" viewBox="0 0 87 116" fill="none" xmlns="http://www.w3.org/2000/svg">
<path d="M1 21.998V106.998H50M1 21.998L21 1.99805M1 21.998H21V1.99805M21 1.99805H76V78.498" stroke="#0A2896" stroke-width="2"/>
<circle cx="69.5" cy="98.498" r="16.5" stroke="#E73A41" stroke-width="2"/>
<path d="M35 86.998H13" stroke="#0A2896" stroke-width="2"/>
<path d="M49 76.998H13" stroke="#0A2896" stroke-width="2"/>
<path d="M49 21.998H64" stroke="#0A2896" stroke-width="2"/>
<path d="M40 11.998H64" stroke="#0A2896" stroke-width="2"/>
<path d="M64 59.998H13" stroke="#0A2896" stroke-width="2"/>
<path d="M64 52.998H13" stroke="#0A2896" stroke-width="2"/>
<path d="M64 45.998H13" stroke="#0A2896" stroke-width="2"/>
<path d="M64 38.998H23" stroke="#0A2896" stroke-width="2"/>
<path d="M19 38.998H13" stroke="#0A2896" stroke-width="2"/>
<path d="M67.66 101.34V102.52H72.1V103.66H67.66V106H65.64V103.66H63.6V102.52H65.64V92H71.14C72.9667 92 74.3933 92.4067 75.42 93.22C76.4467 94.02 76.96 95.1667 76.96 96.66C76.96 98.1667 76.4467 99.3267 75.42 100.14C74.3933 100.94 72.9667 101.34 71.14 101.34H67.66ZM74.94 96.68C74.94 95.7333 74.6133 95.0067 73.96 94.5C73.3067 93.9933 72.3667 93.74 71.14 93.74H67.66V99.68H71.14C72.3533 99.68 73.2867 99.42 73.94 98.9C74.6067 98.3667 74.94 97.6267 74.94 96.68Z" fill="#E73A41"/>
</svg>
