<svg width="38" height="46" viewBox="0 0 38 46" fill="none" xmlns="http://www.w3.org/2000/svg">
    <g>
        <circle cx="19.0033" cy="27.8422" r="12.3158" stroke="#F3C244" stroke-width="2"/>
        <circle cx="19.0016" cy="27.8425" r="17.1579" stroke="#F3C244" stroke-width="2"/>
        <path d="M19.001 21.365L20.8647 24.5861L21.0871 24.9706L21.5215 25.0633L25.1609 25.8404L22.6733 28.6083L22.3764 28.9386L22.4224 29.3803L22.808 33.0817L19.4069 31.5712L19.001 31.391L18.5951 31.5712L15.194 33.0817L15.5796 29.3803L15.6256 28.9386L15.3288 28.6083L12.8412 25.8404L16.4806 25.0633L16.9149 24.9706L17.1373 24.5861L19.001 21.365Z"
              stroke="#0A2896" stroke-width="2"/>
        <path d="M14.3242 -1.30664L21.3825 10.9186" stroke="#F3C244" stroke-width="2"/>
        <path d="M7.87891 -1.0957L13.2978 8.29001" stroke="#F3C244"/>
        <path d="M23.8242 -1.22266L19.2058 6.77661" stroke="#F3C244" stroke-width="2"/>
        <path d="M33.5117 -6.05273L27.4754 4.40252" stroke="#F3C244"/>
        <path d="M34.1875 -1.21094L26.265 12.5112" stroke="#F3C244" stroke-width="2"/>
        <path d="M2.05469 -3.63184L10.9542 11.7825" stroke="#F3C244" stroke-width="2"/>
    </g>
</svg>
