<svg width="24" height="19" viewBox="0 0 24 19" fill="none" xmlns="http://www.w3.org/2000/svg">
    <path d="M24 2.21971C23.1168 2.59615 22.1757 2.84567 21.1945 2.96683C22.2039 2.38125 22.9743 1.46106 23.3365 0.351923C22.3954 0.897115 21.3563 1.28221 20.249 1.49712C19.3554 0.572596 18.0818 0 16.6924 0C13.9968 0 11.8266 2.12596 11.8266 4.73221C11.8266 5.10721 11.8593 5.46779 11.9395 5.81106C7.89156 5.61923 4.30977 3.73413 1.90359 0.8625C1.48352 1.57067 1.23711 2.38125 1.23711 3.25385C1.23711 4.89231 2.10547 6.34471 3.39984 7.18558C2.61758 7.17115 1.85016 6.95048 1.2 6.60288C1.2 6.61731 1.2 6.63606 1.2 6.65481C1.2 8.95385 2.88773 10.8635 5.10094 11.3034C4.70461 11.4087 4.27266 11.4591 3.82437 11.4591C3.51266 11.4591 3.19797 11.4418 2.90258 11.3784C3.53344 13.2519 5.32359 14.6293 7.45219 14.674C5.79563 15.9332 3.69227 16.6918 1.41523 16.6918C1.01594 16.6918 0.632969 16.6745 0.25 16.6269C2.4068 17.9784 4.96289 18.75 7.71938 18.75C16.6791 18.75 21.5775 11.5385 21.5775 5.2875C21.5775 5.07837 21.5701 4.87644 21.5597 4.67596C22.526 4.00962 23.338 3.1774 24 2.21971Z" fill="#3D4859"/>
    <path d="M24 2.21971C23.1168 2.59615 22.1757 2.84567 21.1945 2.96683C22.2039 2.38125 22.9743 1.46106 23.3365 0.351923C22.3954 0.897115 21.3563 1.28221 20.249 1.49712C19.3554 0.572596 18.0818 0 16.6924 0C13.9968 0 11.8266 2.12596 11.8266 4.73221C11.8266 5.10721 11.8593 5.46779 11.9395 5.81106C7.89156 5.61923 4.30977 3.73413 1.90359 0.8625C1.48352 1.57067 1.23711 2.38125 1.23711 3.25385C1.23711 4.89231 2.10547 6.34471 3.39984 7.18558C2.61758 7.17115 1.85016 6.95048 1.2 6.60288C1.2 6.61731 1.2 6.63606 1.2 6.65481C1.2 8.95385 2.88773 10.8635 5.10094 11.3034C4.70461 11.4087 4.27266 11.4591 3.82437 11.4591C3.51266 11.4591 3.19797 11.4418 2.90258 11.3784C3.53344 13.2519 5.32359 14.6293 7.45219 14.674C5.79563 15.9332 3.69227 16.6918 1.41523 16.6918C1.01594 16.6918 0.632969 16.6745 0.25 16.6269C2.4068 17.9784 4.96289 18.75 7.71938 18.75C16.6791 18.75 21.5775 11.5385 21.5775 5.2875C21.5775 5.07837 21.5701 4.87644 21.5597 4.67596C22.526 4.00962 23.338 3.1774 24 2.21971Z" fill="#26ABE2"/>
</svg>
