<svg width="37" height="21" viewBox="0 0 37 21" fill="none" xmlns="http://www.w3.org/2000/svg">
<path d="M2.14118 12.3002C1.80659 11.9836 1.52788 11.7066 1.31 11.4838C1.53764 11.1972 1.83996 10.8277 2.2103 10.3993C3.12332 9.34327 4.44357 7.93646 6.07165 6.53225C9.35877 3.69712 13.7531 1 18.5 1C23.2469 1 27.6412 3.69712 30.9284 6.53225C32.5564 7.93646 33.8767 9.34327 34.7897 10.3993C35.16 10.8277 35.4624 11.1972 35.69 11.4838C35.4721 11.7066 35.1934 11.9836 34.8588 12.3002C33.949 13.1613 32.6313 14.3102 31.0049 15.458C27.7321 17.7675 23.3114 20 18.5 20C13.6886 20 9.26787 17.7675 5.9951 15.458C4.36868 14.3102 3.05104 13.1613 2.14118 12.3002Z" stroke="#E73A41" stroke-width="2"/>
<circle cx="18.5" cy="10.5" r="9.5" stroke="#E73A41" stroke-width="2"/>
<circle cx="18.5" cy="10.5" r="3.5" fill="#E73A41"/>
</svg>
