<svg width="27" height="16" viewBox="0 0 27 16" fill="none" xmlns="http://www.w3.org/2000/svg">
<path d="M1.70478 9.93276C1.58103 9.82415 1.46812 9.7227 1.36658 9.62978C1.48604 9.4949 1.62303 9.34352 1.77661 9.1788C2.42517 8.48315 3.36345 7.55603 4.52008 6.63094C6.85958 4.7598 9.96355 3 13.3 3C16.6365 3 19.7404 4.7598 22.0799 6.63094C23.2366 7.55603 24.1748 8.48315 24.8234 9.1788C24.977 9.34352 25.114 9.4949 25.2334 9.62978C25.1319 9.7227 25.019 9.82415 24.8952 9.93276C24.2493 10.4996 23.3129 11.2568 22.157 12.0132C19.828 13.5373 16.6969 15 13.3 15C9.90309 15 6.77196 13.5373 4.44305 12.0132C3.28708 11.2568 2.35066 10.4996 1.70478 9.93276Z" fill="#FEDAB9" stroke="#FF993B" stroke-width="2"/>
<path d="M17.746 4.00955C17.9814 4.68002 18.0546 5.39669 17.9597 6.1009C17.8648 6.80512 17.6045 7.47685 17.2001 8.06111C16.7957 8.64538 16.2587 9.12557 15.633 9.46238C15.0073 9.79918 14.3107 9.98304 13.6003 9.99888C12.8899 10.0147 12.1859 9.86211 11.5458 9.55354C10.9057 9.24496 10.3478 8.78919 9.91778 8.22354C9.48771 7.65789 9.19772 6.99843 9.07153 6.29915C8.94534 5.59987 8.98654 4.88064 9.19176 4.20035" stroke="#FF993B" stroke-width="2"/>
</svg>
