<svg width="26" height="17" viewBox="0 0 26 17" fill="none" xmlns="http://www.w3.org/2000/svg">
    <path d="M25.6174 14.9255C25.5871 14.8512 25.5589 14.7896 25.5327 14.7402C25.099 13.8502 24.2701 12.7578 23.0466 11.4627L23.0207 11.433L23.0078 11.4185L22.9947 11.4036H22.9816C22.4263 10.8005 22.0746 10.395 21.9274 10.1874C21.6579 9.79192 21.5976 9.39162 21.7448 8.98602C21.8489 8.67958 22.2397 8.03241 22.9163 7.04364C23.2722 6.51962 23.5541 6.09963 23.7623 5.78322C25.2636 3.5093 25.9145 2.05623 25.7148 1.42345L25.6373 1.27558C25.5852 1.18656 25.4507 1.10511 25.234 1.03084C25.0168 0.956723 24.7392 0.944466 24.4007 0.993861L20.6521 1.02336C20.5913 0.998847 20.5046 1.00113 20.3916 1.03084C20.2788 1.06055 20.2224 1.07546 20.2224 1.07546L20.1571 1.11259L20.1053 1.15721C20.0619 1.18671 20.0142 1.2386 19.9621 1.31277C19.9102 1.38668 19.8669 1.47342 19.8322 1.57226C19.4241 2.76848 18.9601 3.88067 18.4393 4.90876C18.1182 5.52181 17.8233 6.0531 17.554 6.50294C17.2851 6.95264 17.0595 7.28396 16.8774 7.49634C16.695 7.70893 16.5304 7.87924 16.3826 8.0079C16.2351 8.1366 16.1224 8.19098 16.0444 8.17109C15.9662 8.1512 15.8926 8.13146 15.8229 8.11172C15.7015 8.0227 15.6038 7.90163 15.5302 7.74841C15.4562 7.59518 15.4065 7.40233 15.3804 7.17001C15.3545 6.93752 15.3392 6.73756 15.3348 6.56943C15.3308 6.40151 15.3326 6.16399 15.3414 5.85754C15.3505 5.55094 15.3545 5.3435 15.3545 5.23473C15.3545 4.859 15.361 4.45122 15.3739 4.0113C15.387 3.57137 15.3976 3.2228 15.4065 2.96601C15.4153 2.70896 15.4194 2.437 15.4194 2.1503C15.4194 1.86359 15.4041 1.63874 15.3739 1.47555C15.3439 1.31256 15.298 1.15435 15.2375 1.00098C15.1767 0.847754 15.0876 0.729228 14.9707 0.645086C14.8536 0.561047 14.708 0.494357 14.5347 0.444806C14.0747 0.326228 13.489 0.262082 12.7773 0.25211C11.1633 0.232373 10.1263 0.351107 9.66637 0.608156C9.48415 0.716762 9.31925 0.865153 9.17181 1.05286C9.01557 1.27044 8.99378 1.38917 9.10657 1.4087C9.6273 1.49757 9.99595 1.71016 10.2129 2.04626L10.2911 2.22436C10.3519 2.35286 10.4126 2.58036 10.4734 2.90654C10.5341 3.23272 10.5733 3.59354 10.5905 3.98881C10.6338 4.71061 10.6338 5.32849 10.5905 5.84248C10.547 6.35668 10.506 6.75698 10.4669 7.04369C10.4277 7.3304 10.3692 7.56272 10.2911 7.74062C10.2129 7.91856 10.1609 8.02732 10.1348 8.0668C10.1088 8.10627 10.0871 8.13115 10.0698 8.14091C9.95706 8.19015 9.83975 8.21524 9.71835 8.21524C9.59676 8.21524 9.44932 8.14595 9.2758 8.00748C9.10233 7.86901 8.92229 7.67881 8.73569 7.43656C8.54908 7.19426 8.33864 6.85567 8.10426 6.42072C7.87006 5.98578 7.62706 5.47174 7.3754 4.87858L7.16719 4.44842C7.03703 4.17168 6.85923 3.76874 6.6336 3.23994C6.40783 2.71093 6.20828 2.19922 6.03481 1.70491C5.96547 1.49731 5.86129 1.33926 5.72247 1.2305L5.65732 1.18588C5.61401 1.14641 5.54449 1.10449 5.44911 1.05982C5.3536 1.01521 5.25394 0.983212 5.14972 0.963527L1.58321 0.993029C1.21876 0.993029 0.971479 1.08709 0.841272 1.27496L0.789162 1.36383C0.76313 1.41332 0.75 1.49238 0.75 1.60119C0.75 1.70995 0.776032 1.84344 0.828142 2.00149C1.34879 3.39555 1.91498 4.74001 2.52671 6.03507C3.13844 7.33014 3.67003 8.37334 4.12115 9.16376C4.57236 9.95475 5.03228 10.7013 5.5009 11.403C5.96953 12.1049 6.27972 12.5548 6.43149 12.7524C6.58345 12.9504 6.7028 13.0985 6.78956 13.1973L7.11503 13.5531C7.32329 13.7904 7.62911 14.0747 8.03264 14.4058C8.43625 14.7371 8.88308 15.0633 9.37336 15.3848C9.86373 15.7059 10.4342 15.9679 11.0851 16.1705C11.7359 16.3733 12.3693 16.4547 12.9855 16.4154H14.4824C14.786 16.3856 15.016 16.2768 15.1723 16.0891L15.2241 16.0148C15.259 15.9558 15.2916 15.8641 15.3217 15.7407C15.3521 15.6172 15.3672 15.481 15.3672 15.3329C15.3584 14.9079 15.3868 14.5249 15.4517 14.1838C15.5166 13.8429 15.5905 13.5859 15.6732 13.4127C15.7559 13.2398 15.8491 13.0938 15.9529 12.9755C16.057 12.8569 16.1311 12.7851 16.1746 12.7604C16.2178 12.7355 16.2523 12.7186 16.2784 12.7085C16.4866 12.6294 16.7317 12.706 17.014 12.9385C17.2961 13.1709 17.5606 13.4577 17.8081 13.7987C18.0554 14.1399 18.3526 14.5227 18.6996 14.9478C19.0469 15.3729 19.3505 15.689 19.6108 15.8969L19.871 16.0749C20.0448 16.1936 20.2704 16.3024 20.5482 16.4012C20.8254 16.5 21.0683 16.5247 21.2769 16.4753L24.6089 16.4161C24.9385 16.4161 25.195 16.3539 25.3769 16.2306C25.5591 16.107 25.6674 15.9709 25.7023 15.8228C25.7372 15.6746 25.739 15.5064 25.709 15.3184C25.6781 15.1308 25.6477 14.9997 25.6174 14.9255Z" fill="#0060FF"/>
    <path d="M25.6174 14.9255C25.5871 14.8512 25.5589 14.7896 25.5327 14.7402C25.099 13.8502 24.2701 12.7578 23.0466 11.4627L23.0207 11.433L23.0078 11.4185L22.9947 11.4036H22.9816C22.4263 10.8005 22.0746 10.395 21.9274 10.1874C21.6579 9.79192 21.5976 9.39162 21.7448 8.98602C21.8489 8.67958 22.2397 8.03241 22.9163 7.04364C23.2722 6.51962 23.5541 6.09963 23.7623 5.78322C25.2636 3.5093 25.9145 2.05623 25.7148 1.42345L25.6373 1.27558C25.5852 1.18656 25.4507 1.10511 25.234 1.03084C25.0168 0.956723 24.7392 0.944466 24.4007 0.993861L20.6521 1.02336C20.5913 0.998847 20.5046 1.00113 20.3916 1.03084C20.2788 1.06055 20.2224 1.07546 20.2224 1.07546L20.1571 1.11259L20.1053 1.15721C20.0619 1.18671 20.0142 1.2386 19.9621 1.31277C19.9102 1.38668 19.8669 1.47342 19.8322 1.57226C19.4241 2.76848 18.9601 3.88067 18.4393 4.90876C18.1182 5.52181 17.8233 6.0531 17.554 6.50294C17.2851 6.95264 17.0595 7.28396 16.8774 7.49634C16.695 7.70893 16.5304 7.87924 16.3826 8.0079C16.2351 8.1366 16.1224 8.19098 16.0444 8.17109C15.9662 8.1512 15.8926 8.13146 15.8229 8.11172C15.7015 8.0227 15.6038 7.90163 15.5302 7.74841C15.4562 7.59518 15.4065 7.40233 15.3804 7.17001C15.3545 6.93752 15.3392 6.73756 15.3348 6.56943C15.3308 6.40151 15.3326 6.16399 15.3414 5.85754C15.3505 5.55094 15.3545 5.3435 15.3545 5.23473C15.3545 4.859 15.361 4.45122 15.3739 4.0113C15.387 3.57137 15.3976 3.2228 15.4065 2.96601C15.4153 2.70896 15.4194 2.437 15.4194 2.1503C15.4194 1.86359 15.4041 1.63874 15.3739 1.47555C15.3439 1.31256 15.298 1.15435 15.2375 1.00098C15.1767 0.847754 15.0876 0.729228 14.9707 0.645086C14.8536 0.561047 14.708 0.494357 14.5347 0.444806C14.0747 0.326228 13.489 0.262082 12.7773 0.25211C11.1633 0.232373 10.1263 0.351107 9.66637 0.608156C9.48415 0.716762 9.31925 0.865153 9.17181 1.05286C9.01557 1.27044 8.99378 1.38917 9.10657 1.4087C9.6273 1.49757 9.99595 1.71016 10.2129 2.04626L10.2911 2.22436C10.3519 2.35286 10.4126 2.58036 10.4734 2.90654C10.5341 3.23272 10.5733 3.59354 10.5905 3.98881C10.6338 4.71061 10.6338 5.32849 10.5905 5.84248C10.547 6.35668 10.506 6.75698 10.4669 7.04369C10.4277 7.3304 10.3692 7.56272 10.2911 7.74062C10.2129 7.91856 10.1609 8.02732 10.1348 8.0668C10.1088 8.10627 10.0871 8.13115 10.0698 8.14091C9.95706 8.19015 9.83975 8.21524 9.71835 8.21524C9.59676 8.21524 9.44932 8.14595 9.2758 8.00748C9.10233 7.86901 8.92229 7.67881 8.73569 7.43656C8.54908 7.19426 8.33864 6.85567 8.10426 6.42072C7.87006 5.98578 7.62706 5.47174 7.3754 4.87858L7.16719 4.44842C7.03703 4.17168 6.85923 3.76874 6.6336 3.23994C6.40783 2.71093 6.20828 2.19922 6.03481 1.70491C5.96547 1.49731 5.86129 1.33926 5.72247 1.2305L5.65732 1.18588C5.61401 1.14641 5.54449 1.10449 5.44911 1.05982C5.3536 1.01521 5.25394 0.983212 5.14972 0.963527L1.58321 0.993029C1.21876 0.993029 0.971479 1.08709 0.841272 1.27496L0.789162 1.36383C0.76313 1.41332 0.75 1.49238 0.75 1.60119C0.75 1.70995 0.776032 1.84344 0.828142 2.00149C1.34879 3.39555 1.91498 4.74001 2.52671 6.03507C3.13844 7.33014 3.67003 8.37334 4.12115 9.16376C4.57236 9.95475 5.03228 10.7013 5.5009 11.403C5.96953 12.1049 6.27972 12.5548 6.43149 12.7524C6.58345 12.9504 6.7028 13.0985 6.78956 13.1973L7.11503 13.5531C7.32329 13.7904 7.62911 14.0747 8.03264 14.4058C8.43625 14.7371 8.88308 15.0633 9.37336 15.3848C9.86373 15.7059 10.4342 15.9679 11.0851 16.1705C11.7359 16.3733 12.3693 16.4547 12.9855 16.4154H14.4824C14.786 16.3856 15.016 16.2768 15.1723 16.0891L15.2241 16.0148C15.259 15.9558 15.2916 15.8641 15.3217 15.7407C15.3521 15.6172 15.3672 15.481 15.3672 15.3329C15.3584 14.9079 15.3868 14.5249 15.4517 14.1838C15.5166 13.8429 15.5905 13.5859 15.6732 13.4127C15.7559 13.2398 15.8491 13.0938 15.9529 12.9755C16.057 12.8569 16.1311 12.7851 16.1746 12.7604C16.2178 12.7355 16.2523 12.7186 16.2784 12.7085C16.4866 12.6294 16.7317 12.706 17.014 12.9385C17.2961 13.1709 17.5606 13.4577 17.8081 13.7987C18.0554 14.1399 18.3526 14.5227 18.6996 14.9478C19.0469 15.3729 19.3505 15.689 19.6108 15.8969L19.871 16.0749C20.0448 16.1936 20.2704 16.3024 20.5482 16.4012C20.8254 16.5 21.0683 16.5247 21.2769 16.4753L24.6089 16.4161C24.9385 16.4161 25.195 16.3539 25.3769 16.2306C25.5591 16.107 25.6674 15.9709 25.7023 15.8228C25.7372 15.6746 25.739 15.5064 25.709 15.3184C25.6781 15.1308 25.6477 14.9997 25.6174 14.9255Z" fill="#5380BA"/>
</svg>
